<?xml version="1.0" encoding="utf-8"?>
<!-- Generator: Adobe Illustrator 23.0.3, SVG Export Plug-In . SVG Version: 6.00 Build 0)  -->
<svg version="1.1" id="Layer_1" xmlns="http://www.w3.org/2000/svg" xmlns:xlink="http://www.w3.org/1999/xlink" x="0px" y="0px"
	 viewBox="0 0 629.5 577.9" style="enable-background:new 0 0 629.5 577.9;" xml:space="preserve">
<style type="text/css">
	.st0{fill:#FFF200;}
	.st1{fill:#231F20;}
	.st2{fill:#68C8C4;}
	.st3{fill:#231F20;stroke:#231F20;stroke-width:0.5;stroke-miterlimit:10;}
	.st4{fill:#ABD69D;}
	.st5{fill:#F3B7C7;}
	.st6{fill:#8078B8;}
	.st7{fill:#FFFFFF;}
	.st8{fill:#F3D767;}
	.st9{fill:#EC865A;}
	.st10{fill:#D54E60;}
	.st11{fill:#F18861;}
</style>
<title>logo</title>
<circle class="st0" cx="5753.1" cy="5042.5" r="77.8"/>
<path class="st1" d="M7575.7,3745.1c1.1-1.4,2.2-2.9,3.3-4.4c1-1.5,2-3,3-4.6c0.3-0.4,0.6-0.9,0.9-1.4c0.3-0.4,0.4-0.8,0.6-1.2
	c0.1-0.3,0-0.5-0.3-0.6c-0.6,0-1.1,0.1-1.6,0.4c-0.6,0.3-1.3,0.6-1.9,0.9c-0.6,0.3-1.3,0.5-2,0.6c-0.6,0.1-1.3,0.1-1.9-0.1
	c-0.7-0.3-1.3-0.7-1.7-1.4c-0.3-0.5-0.6-1-0.7-1.6c-0.2-0.6-0.2-1.3-0.2-1.9c0-0.6,0.2-1.2,0.5-1.8c0.3-0.5,0.8-0.9,1.4-1.1
	c0.3-0.1,0.7-0.2,1-0.2c0.3,0,0.7,0.1,1,0.2c0.3,0.1,0.7,0.2,1,0.4c0.3,0.1,0.7,0.3,1,0.4c0.7,0.2,1.3,0.3,2,0.3
	c0.7,0,1.4-0.1,2.1-0.3c0.5-0.1,1.1-0.3,1.8-0.5c0.7-0.2,1.4-0.3,2.2-0.4c0.7-0.1,1.4-0.1,2.1,0.1c0.6,0.1,1.2,0.4,1.6,0.9
	c0.5,0.5,0.7,1.1,0.8,1.7c0,0.7-0.1,1.3-0.3,1.9c-0.2,0.7-0.5,1.3-0.9,1.9c-0.4,0.6-0.7,1.1-1.1,1.6c-0.9,1.1-1.8,2.2-2.7,3.2
	c-0.9,1.1-1.8,2.2-2.6,3.4c-0.2,0.4-0.6,0.8-1,1.4c-0.4,0.6-0.8,1.2-1.2,1.8c-0.4,0.6-0.7,1.2-1,1.9c-0.3,0.5-0.3,1.1-0.2,1.6
	c0,0.1,0.3,0.1,0.9,0c0.6-0.1,1.2-0.3,2-0.5c0.7-0.2,1.5-0.4,2.2-0.6c0.4-0.2,0.9-0.3,1.4-0.3c0.8,0,1.7,0.2,2.4,0.7
	c0.7,0.5,1.2,1.1,1.7,1.8c0.4,0.7,0.7,1.5,0.8,2.3c0.1,0.7,0.1,1.5-0.1,2.2c-0.2,0.6-0.6,1.2-1.1,1.6c-0.7,0.4-1.5,0.5-2.3,0.3
	c-0.6-0.1-1.2-0.3-1.8-0.5c-0.6-0.3-1.2-0.5-1.8-0.8c-0.6-0.3-1.2-0.5-1.8-0.7c-0.6-0.2-1.2-0.3-1.8-0.2c-0.6,0.1-1.2,0.2-1.7,0.5
	c-0.5,0.3-1.1,0.6-1.6,0.9c-0.5,0.3-1,0.5-1.6,0.7c-0.5,0.2-1.1,0.1-1.6-0.1c-0.7-0.3-1.3-0.7-1.8-1.3c-0.4-0.5-0.6-1.1-0.6-1.7
	c0-0.6,0-1.3,0.2-1.9c0.2-0.7,0.5-1.3,0.8-1.9c0.3-0.6,0.7-1.2,1.1-1.8C7574.9,3746.1,7575.3,3745.6,7575.7,3745.1z"/>
<path class="st1" d="M7613.7,3739.6c0,1.8-0.2,3.6-0.6,5.3c-0.4,1.4-0.9,2.8-1.6,4.1c-0.6,1.1-1.3,2.1-2.2,3.1
	c-0.7,0.8-1.5,1.5-2.4,2.1c-0.7,0.5-1.4,0.9-2.1,1.2c-0.5,0.2-1,0.3-1.5,0.3c-1.6-0.1-3.2-0.5-4.7-1.3c-1.3-0.7-2.5-1.8-3.4-3
	c-0.9-1.3-1.6-2.7-2.1-4.1c-0.5-1.6-0.8-3.2-0.8-4.8c-0.1-1.7,0-3.4,0.3-5c0.3-1.6,0.8-3.2,1.5-4.7c0.7-1.4,1.5-2.7,2.6-3.9
	c1-1.1,2.3-2,3.7-2.6c1.2-0.5,2.5-0.7,3.7-0.6c1.1,0.1,2.2,0.5,3.2,1.2c1,0.7,1.9,1.5,2.6,2.5c0.8,1,1.4,2.1,2,3.3
	c0.5,1.2,1,2.4,1.3,3.6C7613.6,3737.3,7613.7,3738.4,7613.7,3739.6z M7602,3731.8c-0.7,0.4-1.3,1.1-1.7,1.8c-0.4,0.8-0.8,1.6-1,2.5
	c-0.2,0.8-0.4,1.7-0.5,2.5c-0.1,0.8-0.1,1.4-0.2,1.8c0,0.5,0,1,0.1,1.7c0.1,0.7,0.2,1.4,0.3,2.1c0.2,0.7,0.4,1.4,0.6,2.1
	c0.2,0.6,0.6,1.2,1,1.7c0.4,0.4,0.9,0.7,1.4,0.9c0.7,0.1,1.4,0,2-0.3c0.9-0.4,1.6-1.1,2.1-1.9c0.5-0.8,0.9-1.8,1.1-2.7
	c0.2-1,0.4-2,0.4-3c0-1,0-2-0.1-2.8c-0.1-0.8-0.2-1.6-0.4-2.4c-0.2-0.9-0.5-1.8-1-2.6c-0.4-0.7-1-1.3-1.7-1.6
	C7603.7,3731.1,7602.7,3731.2,7602,3731.8z"/>
<path class="st1" d="M7625.9,3744.5c-0.7-0.5-1.4-0.9-2.2-1.1c-0.8-0.3-1.6-0.6-2.4-0.9c-0.8-0.3-1.6-0.6-2.3-1
	c-0.7-0.3-1.3-0.8-1.9-1.4c-0.5-0.6-0.9-1.4-1.1-2.2c-0.2-1.1-0.2-2.2,0-3.3c0-1.4,0.4-2.8,1.2-3.9c0.7-1.2,1.7-2.2,2.9-3
	c1.2-0.8,2.5-1.3,3.9-1.6c1.4-0.3,2.8-0.2,4.1,0.3c1.1,0.4,2.1,1,2.9,1.8c0.8,0.8,1.4,1.8,1.8,3c0.1,0.4,0.2,0.7,0.3,1.1
	c0.1,0.5,0.1,0.9,0.1,1.4c0,0.4-0.1,0.8-0.3,1.2c-0.2,0.4-0.6,0.6-1,0.6c-0.7,0.1-1.4,0-2.1-0.1c-0.7-0.1-1.3-0.5-1.8-1
	c-0.2-0.3-0.5-0.5-0.7-0.8c-0.2-0.3-0.5-0.5-0.8-0.8c-0.3-0.2-0.6-0.4-0.9-0.5c-0.3-0.1-0.7-0.2-1.1-0.1c-0.6,0.1-1.1,0.4-1.6,0.9
	c-0.4,0.4-0.7,0.9-0.8,1.5c-0.1,0.5-0.1,1.1,0.2,1.6c0.3,0.6,0.7,1,1.3,1.2c1.3,0.5,2.6,1,3.9,1.4c1.2,0.4,2.3,1,3.3,1.7
	c1,0.7,1.7,1.7,2.3,2.7c0.6,1.4,0.9,2.9,0.9,4.5c0.1,1.4-0.3,2.7-1,3.9c-0.7,1.1-1.6,2-2.7,2.6c-1.1,0.7-2.4,1.1-3.7,1.3
	c-1.3,0.2-2.7,0.2-4-0.2c-1.3-0.3-2.4-0.8-3.5-1.5c-1.1-0.7-1.9-1.7-2.5-2.9c-0.2-0.5-0.4-1-0.5-1.6c-0.1-0.5-0.2-1.1-0.1-1.6
	c0.1-0.5,0.3-0.9,0.6-1.3c0.4-0.4,0.9-0.7,1.5-0.7c0.6-0.1,1.3,0,1.8,0.3c0.5,0.3,0.9,0.7,1.3,1.2c0.4,0.5,0.8,0.9,1.3,1.3
	c0.4,0.4,1,0.7,1.6,0.8c0.6,0.1,1.3,0,1.8-0.4c0.5-0.3,0.8-0.8,1-1.3c0.2-0.5,0.2-1.1,0-1.7
	C7626.8,3745.3,7626.4,3744.8,7625.9,3744.5z"/>
<path class="st1" d="M7636.3,3738.4c-0.3-1.3-0.5-2.5-0.6-3.8c-0.1-1-0.1-1.9,0-2.9c0.1-0.8,0.3-1.5,0.6-2.2c0.3-0.6,0.6-1.2,1-1.7
	c0.3-0.4,0.7-0.7,1.2-0.9c0.4-0.2,0.9-0.3,1.4-0.3c0.5,0,1,0,1.5,0c0.5,0.1,1,0.1,1.5,0.2c0.8,0.1,1.5,0.2,2.3,0.1
	c0.7,0,1.5-0.1,2.3-0.1c0.7-0.1,1.4-0.1,2.1,0c0.7,0,1.3,0.3,1.9,0.7c0.3,0.2,0.5,0.5,0.6,0.9c0.2,0.3,0.2,0.7,0.3,1.1
	c0,0.4,0,0.7-0.1,1.1c-0.1,0.3-0.3,0.6-0.5,0.9c-0.3,0.4-0.7,0.6-1.2,0.7c-0.5,0.1-1,0.2-1.5,0.2c-0.5,0-1.1,0-1.6,0
	c-0.5,0-1-0.1-1.4-0.1c-0.3,0-0.7,0-1-0.1c-0.4-0.1-0.8-0.1-1.1-0.1c-0.4,0-0.7,0-1.1,0.2c-0.3,0.1-0.6,0.3-0.9,0.6
	c-0.3,0.5-0.5,1-0.5,1.6c0,0.6,0,1.3,0.2,1.9c0.1,0.6,0.3,1.3,0.5,1.9c0.2,0.5,0.3,1.1,0.4,1.7c0.5-0.2,1-0.5,1.5-0.8
	c0.5-0.3,1-0.7,1.5-1c0.5-0.3,1-0.6,1.5-0.8c0.5-0.2,1.1-0.2,1.6-0.1c0.4,0.1,0.7,0.2,1,0.5c0.3,0.2,0.5,0.6,0.6,0.9
	c0.1,0.3,0.2,0.7,0.2,1.1c0,0.4-0.1,0.7-0.2,1.1c-0.3,0.6-0.8,1.2-1.4,1.6c-0.7,0.5-1.4,0.9-2.1,1.3c-0.8,0.4-1.6,0.6-2.4,0.9
	c-0.7,0.2-1.4,0.3-2.2,0.4c-0.1,0.4-0.2,0.8-0.3,1.1c-0.1,0.4-0.2,0.7-0.3,1.1c-0.2,0.5-0.1,1.1,0.1,1.6c0.2,0.3,0.6,0.5,1,0.4
	c0.5,0,1-0.1,1.5-0.3c0.6-0.2,1.1-0.4,1.7-0.7c0.6-0.3,1.1-0.5,1.6-0.7c0.4-0.2,0.8-0.2,1.3-0.2c0.9,0.1,1.7,0.5,2.3,1
	c0.7,0.5,1.2,1.2,1.6,2c0.4,0.7,0.5,1.6,0.4,2.4c-0.1,0.9-0.6,1.6-1.3,2.2c-0.4,0.3-0.8,0.5-1.3,0.6c-0.5,0-0.9,0-1.4-0.1
	c-0.5-0.1-0.9-0.2-1.4-0.4c-0.4-0.1-0.9-0.2-1.4-0.2c-0.9,0-1.7,0-2.5,0.3c-0.8,0.2-1.7,0.4-2.5,0.4c-0.8,0.1-1.7-0.1-2.4-0.5
	c-0.7-0.3-1.3-0.8-1.8-1.4c-0.5-0.6-0.9-1.3-1.1-2.1c-0.2-0.8-0.4-1.6-0.3-2.5c0-0.4,0.1-0.8,0.2-1.3c0.1-0.4,0.2-0.8,0.4-1.2
	c0.2-0.4,0.3-0.8,0.5-1.2c0.2-0.4,0.3-0.8,0.3-1.2c0.2-1,0.2-2,0.1-2.9C7636.7,3740.3,7636.5,3739.4,7636.3,3738.4z"/>
<rect x="3188.6" y="7365.5" class="st2" width="1343.6" height="1343.6"/>
<path class="st1" d="M7656,3738.4c-0.3-1.7-0.6-3.3-0.8-4.6c-0.2-1.1-0.3-2.3-0.2-3.4c0-0.8,0.3-1.7,0.8-2.3
	c0.6-0.7,1.5-1.1,2.4-1.3c1.1-0.3,2.3-0.4,3.5-0.4c1.2,0,2.4,0.1,3.6,0.3c1.2,0.2,2.3,0.7,3.3,1.2c1,0.6,1.9,1.4,2.7,2.3
	c0.8,0.9,1.3,2,1.5,3.2c0.2,1,0.1,2.1-0.2,3.1c-0.3,1-0.8,2-1.5,2.9c-0.7,0.9-1.6,1.7-2.6,2.4c1.3,1.1,2.5,2.3,3.4,3.7
	c1,1.4,1.8,2.9,2.4,4.4c0.2,0.6,0.3,1.2,0.3,1.8c0,0.7-0.1,1.3-0.3,2c-0.2,0.6-0.6,1.1-1,1.5c-0.5,0.4-1.2,0.5-1.9,0.4
	c-0.7-0.1-1.4-0.5-1.9-1c-0.6-0.6-1.1-1.3-1.5-2.1c-0.5-0.8-0.9-1.6-1.3-2.5c-0.4-0.8-0.8-1.6-1.3-2.3c-0.4-0.6-0.9-1.1-1.5-1.5
	c-0.6-0.3-1.3-0.4-1.9-0.2c0.2,1.3,0.4,2.5,0.4,3.8c0,1.3-0.2,2.5-0.7,3.7c-0.3,0.7-0.8,1.2-1.4,1.5c-0.6,0.4-1.3,0.6-2,0.6
	c-0.7,0-1.3-0.2-1.9-0.5c-0.6-0.4-1-1-1.1-1.8c-0.1-0.6-0.1-1.2,0-1.8c0.1-0.6,0.3-1.2,0.5-1.8c0.2-0.6,0.4-1.2,0.6-1.7
	c0.2-0.6,0.4-1.1,0.4-1.7c0.2-1.3,0.2-2.7,0-4C7656.4,3741,7656.2,3739.7,7656,3738.4z M7661.6,3740c0.6,0,1.2-0.1,1.7-0.5
	c0.5-0.3,0.9-0.7,1.3-1.2c0.4-0.4,0.7-0.9,1-1.4c0.3-0.5,0.5-0.8,0.6-1c0.4-0.5,0.5-1.1,0.2-1.7c-0.3-0.5-0.7-1-1.2-1.2
	c-0.6-0.3-1.2-0.6-1.9-0.7c-0.6-0.2-1.2-0.2-1.8-0.2c-0.4,0-0.7,0.2-0.9,0.5c-0.2,0.4-0.3,0.8-0.3,1.2c0,0.6,0,1.1,0.2,1.7
	c0.1,0.6,0.3,1.2,0.4,1.8c0.2,0.6,0.3,1.1,0.5,1.6C7661.4,3739.3,7661.5,3739.6,7661.6,3740L7661.6,3740z"/>
<path class="st1" d="M7577.7,3780.8c0.2,0,0.3,0.1,0.4,0.2C7578.1,3780.9,7577.9,3780.9,7577.7,3780.8c-0.2,0-0.3-0.1-0.4-0.1
	C7577.2,3780.6,7577.4,3780.7,7577.7,3780.8c0.7,0.3,1.5,0.4,2.2,0.4c0.8,0,1.5,0,2.3-0.1c0.8-0.1,1.5-0.2,2.3-0.4
	c0.7-0.1,1.5-0.2,2.3-0.3c0.5,0,1,0,1.6,0.1c0.5,0.1,0.9,0.3,1.3,0.5c0.3,0.3,0.6,0.6,0.7,1c0.1,0.6,0,1.1-0.2,1.6
	c-0.2,0.6-0.6,1.2-1,1.7c-0.4,0.5-0.9,1-1.4,1.4c-0.5,0.4-1,0.9-1.5,1.3c-0.5,0.4-1,0.8-1.4,1.3c-0.4,0.4-0.8,0.9-1.2,1.4
	c-0.4,0.5-0.7,1-1.1,1.5c-0.4,0.5-0.7,1-1.1,1.4c-0.4,0.5-0.8,0.9-1.3,1.3c-0.4,0.3-0.7,0.6-1,1c-0.2,0.2-0.2,0.4-0.1,0.5
	c0.2,0.1,0.4,0.2,0.6,0.1c0.3,0,0.7-0.1,1-0.1c0.4-0.1,0.8-0.2,1.2-0.3c0.4-0.1,0.7-0.2,1-0.3c1.2-0.5,2.5-0.7,3.8-0.6
	c1.3,0.1,2.5,0.7,3.4,1.7c0.3,0.3,0.6,0.7,0.8,1.2c0.2,0.4,0.2,0.9,0.2,1.4c0,0.5-0.2,0.9-0.4,1.3c-0.2,0.4-0.6,0.7-1.1,0.9
	c-0.4,0.2-0.8,0.2-1.3,0.2c-0.4,0-0.9,0-1.3-0.1c-0.4-0.1-0.9-0.2-1.3-0.3c-0.4-0.1-0.8-0.3-1.2-0.4c-0.7-0.3-1.4-0.4-2.1-0.6
	c-0.7-0.1-1.5-0.1-2.2-0.1c-0.3,0-0.7,0.1-1,0.2c-0.3,0.1-0.6,0.2-1,0.3c-0.3,0.1-0.7,0.2-1,0.4c-0.3,0.1-0.7,0.2-1,0.2
	c-0.5,0.1-0.9,0-1.4-0.1c-0.5-0.1-0.9-0.3-1.3-0.6c-0.4-0.3-0.7-0.6-0.9-1c-0.2-0.4-0.3-0.9-0.2-1.4c0.2-0.8,0.6-1.6,1.2-2.2
	c0.6-0.7,1.2-1.3,1.8-1.9c0.9-0.9,1.8-1.8,2.6-2.7c0.8-0.9,1.7-1.8,2.5-2.8c0.1-0.2,0.4-0.4,0.8-0.8c0.4-0.4,0.8-0.8,1.1-1.2
	c0.3-0.3,0.5-0.7,0.7-1.1c0.1-0.3,0-0.6-0.4-0.7c-0.5-0.2-1-0.2-1.5-0.1c-0.5,0.1-1,0.3-1.5,0.5c-0.5,0.2-1,0.4-1.5,0.6
	c-0.5,0.2-1,0.3-1.5,0.3c-0.6,0-1.1-0.1-1.6-0.3c-0.5-0.2-0.9-0.5-1.2-0.9c-0.3-0.4-0.5-0.9-0.6-1.4c-0.1-0.6-0.1-1.1,0.1-1.7
	c0.1-0.5,0.4-0.9,0.7-1.3c0.3-0.3,0.7-0.5,1.2-0.5c0.5-0.1,0.9-0.1,1.4,0C7576.8,3780.5,7577.3,3780.6,7577.7,3780.8z"/>
<path class="st1" d="M7595.9,3799.9c-0.5-0.4-0.7-0.6-0.7-0.7c0,0,0,0,0.2,0.1c0.1,0.1,0.3,0.2,0.5,0.4
	C7595.9,3799.9,7596,3799.9,7595.9,3799.9c-1.1-1-1.9-2.1-2.5-3.4c-0.6-1.3-1-2.8-1.2-4.2c-0.2-1.5-0.1-2.9,0.2-4.4
	c0.3-1.4,0.8-2.7,1.5-3.9c0.7-1.1,1.5-2,2.6-2.7c1-0.6,2.1-1.1,3.2-1.3c1.1-0.2,2.3-0.1,3.4,0.3c1.2,0.4,2.3,1,3.2,1.9
	c0.9,0.9,1.7,1.9,2.2,3.1c0.6,1.2,1,2.5,1.2,3.8c0.2,1.3,0.2,2.7,0.1,4c-0.1,1.3-0.5,2.5-1,3.7c-0.6,1.2-1.4,2.2-2.4,3
	c-1,0.8-2.1,1.3-3.3,1.6c-1.2,0.3-2.5,0.3-3.7,0.1C7598.1,3801.3,7596.9,3800.7,7595.9,3799.9z M7598.2,3787.9
	c-0.1,0.3-0.2,0.5-0.2,0.4c0,0,0.1-0.1,0.1-0.3c0.1-0.1,0.1-0.3,0.2-0.4C7598.4,3787.6,7598.3,3787.7,7598.2,3787.9
	c-0.3,0.6-0.4,1.2-0.5,1.9c-0.1,0.7-0.1,1.4-0.1,2c0.1,0.7,0.2,1.3,0.5,1.9c0.3,0.6,0.7,1.2,1.2,1.6c0.4,0.4,1,0.7,1.6,0.8
	c0.5,0,1-0.1,1.5-0.4c0.5-0.3,0.9-0.7,1.2-1.2c0.3-0.5,0.6-1,0.7-1.6c0.3-1.1,0.3-2.3,0.2-3.4c-0.2-1.1-0.6-2.2-1.4-3.1
	c-0.4-0.4-0.8-0.7-1.4-0.9c-0.4-0.1-0.9-0.1-1.3,0.1c-0.4,0.2-0.8,0.5-1.2,0.8C7598.8,3787,7598.5,3787.4,7598.2,3787.9
	L7598.2,3787.9z"/>
<path class="st1" d="M7621.4,3787c-0.4-0.3-0.7-0.6-1-1c-0.2-0.4-0.5-0.7-0.8-1c-0.2-0.3-0.5-0.4-0.8-0.5c-0.3,0-0.7,0.2-1.1,0.6
	c-0.4,0.4-0.6,0.9-0.6,1.5c0,0.5,0.2,0.9,0.5,1.3c0.3,0.4,0.7,0.7,1.2,0.9c0.4,0.2,0.9,0.3,1.4,0.4c0.6,0,1.1,0.1,1.7,0.2
	c0.5,0.1,1.1,0.3,1.6,0.5c0.5,0.2,1,0.5,1.4,0.8c0.4,0.3,0.8,0.8,1,1.3c0.6,1,0.9,2,0.9,3.1c0,1-0.2,2-0.7,2.8
	c-0.5,0.9-1.3,1.7-2.1,2.2c-1,0.7-2.1,1.1-3.3,1.4c-0.7,0.1-1.3,0.1-2,0.1c-0.8,0-1.6-0.1-2.3-0.3c-0.8-0.2-1.6-0.4-2.3-0.7
	c-0.7-0.3-1.3-0.7-1.9-1.2c-0.5-0.5-0.8-1-1-1.7c-0.2-0.7-0.1-1.5,0.3-2.1c0.2-0.5,0.5-0.9,0.9-1.2c0.4-0.3,0.8-0.5,1.3-0.6
	c0.5-0.1,1-0.1,1.5,0c0.5,0.1,1,0.3,1.4,0.6c0.3,0.2,0.6,0.5,0.9,0.8c0.3,0.3,0.6,0.7,0.9,1c0.3,0.3,0.7,0.5,1.1,0.6
	c0.4,0.1,0.9,0,1.3-0.3c0.4-0.2,0.6-0.6,0.7-1c0.1-0.4,0-0.8-0.2-1.1c-0.2-0.4-0.4-0.7-0.8-1c-0.3-0.2-0.7-0.4-1-0.5
	c-0.6-0.1-1.1-0.1-1.6-0.3c-0.6-0.1-1.1-0.3-1.6-0.5c-0.5-0.2-1-0.5-1.5-0.8c-0.5-0.3-0.8-0.7-1.1-1.2c-0.5-0.9-0.9-1.9-1-3
	c-0.1-1,0-2,0.4-2.9c0.4-0.9,1.1-1.8,1.9-2.4c1.1-0.8,2.3-1.3,3.6-1.4c0.6-0.1,1.3-0.2,1.9-0.1c0.7,0,1.5,0.1,2.2,0.2
	c0.7,0.1,1.4,0.4,2.1,0.6c0.6,0.3,1.2,0.6,1.6,1.1c0.4,0.4,0.7,1,0.8,1.6c0.1,0.7,0,1.5-0.4,2.2c-0.2,0.5-0.6,1-1,1.3
	c-0.4,0.3-0.8,0.5-1.3,0.6c-0.5,0.1-1,0-1.4-0.1C7622.3,3787.5,7621.8,3787.3,7621.4,3787z"/>
<path class="st1" d="M7645.3,3788.6c0,0.5-0.2,1-0.5,1.4c-0.3,0.3-0.6,0.6-1,0.9c-0.4,0.2-0.7,0.4-1.1,0.5c-0.4,0.1-0.8,0.3-1.1,0.4
	c-1.3,0.5-2.6,0.9-3.9,1.3c-1.3,0.3-2.7,0.6-4,0.8c0,0.6,0.3,1.1,0.7,1.4c0.4,0.3,0.9,0.4,1.3,0.4c0.6,0,1.1-0.1,1.7-0.3
	c0.6-0.2,1.2-0.4,1.8-0.7c0.6-0.3,1.1-0.5,1.6-0.8c0.5-0.3,0.8-0.4,1.1-0.5c0.7-0.4,1.6-0.4,2.3,0c0.6,0.4,1,1,1.1,1.7
	c0.2,0.8,0.2,1.6-0.1,2.3c-0.2,0.8-0.6,1.5-1.3,2c-1.3,1-2.8,1.6-4.4,1.8c-1.6,0.2-3.1,0-4.6-0.4c-1.5-0.5-2.8-1.3-4-2.4
	c-1.2-1.1-2-2.5-2.4-4.1c-0.3-1-0.4-2.1-0.4-3.1c0-1.2,0.1-2.3,0.3-3.5c0.2-1.2,0.6-2.3,1.1-3.4c0.5-1,1.1-2,1.8-2.8
	c0.7-0.8,1.6-1.5,2.6-1.9c1.1-0.5,2.2-0.7,3.3-0.6c1.6,0.1,3,0.6,4.3,1.5c1.3,0.9,2.2,2.2,2.8,3.6c0.3,0.7,0.5,1.4,0.7,2.2
	C7645.3,3787,7645.4,3787.8,7645.3,3788.6z M7639.6,3784.8c-0.4-0.7-1-1.3-1.7-1.7c-0.5-0.2-1.1-0.1-1.6,0.2c-0.6,0.3-1,0.8-1.4,1.4
	c-0.4,0.6-0.7,1.2-1,1.8c-0.2,0.5-0.4,1.1-0.6,1.7c-0.1,0.5-0.1,0.8,0,0.8c0.3,0.1,0.6,0.1,0.9,0.1c0.5,0,1-0.1,1.5-0.2
	c0.6-0.1,1.2-0.3,1.8-0.5c0.6-0.2,1.1-0.5,1.5-0.8c0.4-0.3,0.7-0.7,0.8-1.2C7640.1,3785.8,7639.9,3785.2,7639.6,3784.8z"/>
<path class="st1" d="M7660.1,3785.8c-0.2,0.4-0.6,0.6-1.1,0.7c-0.5,0.1-1,0.1-1.4,0c-0.4,0-0.8-0.1-1.1-0.2
	c-0.3-0.1-0.3-0.1-0.1-0.1c-0.6-0.1-1.1,0.1-1.5,0.6c-0.4,0.4-0.6,1-0.7,1.6c-0.1,0.7-0.2,1.5-0.2,2.2c0,0.8,0.1,1.6,0.2,2.4
	c0.1,0.8,0.2,1.5,0.3,2.2c0.1,0.5,0.1,1,0.1,1.5c-0.1,0.8-0.2,1.7-0.5,2.5c-0.3,0.8-0.9,1.5-1.6,1.8c-0.5,0.2-1,0.4-1.6,0.4
	c-0.6,0.1-1.1,0-1.7-0.2c-0.5-0.1-1-0.4-1.4-0.8c-0.4-0.4-0.7-0.9-0.7-1.5c0-0.6,0.1-1.2,0.2-1.8c0.2-0.6,0.3-1.1,0.5-1.7
	c0.2-0.5,0.4-1.1,0.6-1.7c0.2-0.6,0.3-1.1,0.4-1.7c0.2-1.2,0.2-2.4,0-3.5c-0.2-1.1-0.4-2.3-0.6-3.5c-0.1-0.5-0.1-1-0.2-1.5
	c0-0.6,0-1.3,0.2-1.9c0.1-0.6,0.3-1.1,0.7-1.5c0.4-0.4,0.9-0.6,1.5-0.4c0.3,0,0.6,0.2,0.8,0.5c0.2,0.3,0.3,0.6,0.4,0.9
	c0.1,0.3,0.2,0.7,0.2,1c0,0.3,0.1,0.6,0.2,0.9c0.4-0.6,0.9-1.2,1.6-1.6c0.7-0.5,1.4-0.9,2.2-1.1c0.7-0.2,1.5-0.3,2.3-0.2
	c0.8,0.2,1.4,0.6,1.8,1.3c0.2,0.3,0.4,0.6,0.5,1c0.1,0.4,0.2,0.8,0.3,1.1c0,0.4,0,0.8,0,1.1
	C7660.5,3785.1,7660.3,3785.5,7660.1,3785.8z"/>
<path class="st1" d="M7453.3,3704.7c0,0.1-0.1,0.1-0.1,0.2c0,1.1,7.5-0.6,7.5,3.8c0,1.8-0.6,3.6-4,3.6c-3.6,0-9.6-0.4-13-0.8
	c-2.4-0.2-3.6-1.8-3.6-3.5c0-1.1,0.5-2.1,1.4-2.7c4.3-3.5,7.4-6.8,7.4-7.5c0-0.6-0.7-0.7-1.8-0.7c-0.9,0-1.9,0.1-2.9,0.1
	c-2.8,0-5-0.5-5-3.9c0-3.3,2.7-3.5,9-3.5c5.6,0,12.1,0.7,12.1,5.8C7460.2,3700.1,7454.5,3701.8,7453.3,3704.7z"/>
<path class="st1" d="M7473.8,3704.5c-0.3,4.2-3.8,7.4-7.9,7.4c-4.3,0-6.9-2.6-6.9-6c0-6.1,2.8-8.3,8.6-8.3
	C7471.1,3697.5,7473.8,3701,7473.8,3704.5z"/>
<path class="st1" d="M7472.7,3712.6c0-1.3,1.4-3.2,1.4-4.3c0-0.7-0.2-1.3-0.6-1.9c-0.8-1.6-1.2-3.3-1.2-5.1c0-4.7,2.7-9.1,6.9-11.2
	c0.7-0.4,1.5-0.5,2.3-0.6c1.9-0.1,3.5,1.4,3.6,3.3c0,0,0,0,0,0c0,1.1-0.7,1.9-1.9,2.9c-2.4,1.9-3.5,3.1-3.5,4.4
	c0,1.2,0.9,2.6,2.7,5.1c1,1.1,1.6,2.5,1.7,3.9c0,4.5-4.9,6.7-7.6,6.7C7474.2,3715.6,7472.7,3714.3,7472.7,3712.6z"/>
<path class="st1" d="M7510.5,3714.3c0,4.6-6.1,5.4-9.7,5.4c-3,0.1-5.8-1.1-7.9-3.3c-1.4-1.5-2.7-2.2-4.3-2.2c-1.1,0-2.6,0.7-3.9,0.7
	c-2.6,0-5.9-2.8-5.9-5.4c0-2.4,1.9-4.5,4.3-4.6c0.5,0,1,0.1,1.4,0.1c2.6,0,3.8-1.5,5.2-3.8c1.9-3.8,6.8-6.1,11.1-6.1
	c5,0,6.5,4.8,6.5,8.4c0,1.4-0.5,2.8-1.5,3.9c-0.8,0.9-2.3,1.1-2.3,2.8C7505,3712.6,7510.5,3709.8,7510.5,3714.3z"/>
<path class="st1" d="M7535.6,3698.2c0,1.4-1.7,1.9-2.8,2.8c-1.2,0.9-2.7,0.7-4.1,0.9c-4.9,0.4-6.7,1.8-8,6.2
	c-0.7,2.3-1.2,4.7-1.3,7.1c-0.1,2.3-1.9,4.3-4,4.3c-1.9,0-4.6-1.9-5-3.9c-0.2-1.1-0.3-2.2-0.3-3.2c0-0.8,0.1-1.7,0.1-2.4
	c0-1.5-0.2-2.9-0.6-4.3c-0.1-0.2-0.1-0.5-0.1-0.7c0-2.7,5.4-5.2,8.9-7.4c1.5-1.1,3.4-1.7,5.2-1.8c0.9,0,1.8,0.3,2.7,0.3
	c1.7-0.1,3.3-0.3,5-0.7C7533,3695.7,7535.6,3696,7535.6,3698.2z"/>
<path class="st1" d="M7571.5,3646.1c0-1.2,1-2.6,3-2.6c0.4,0.1,0.8,0.1,1.2,0.1c1.9,0,5.2-0.4,8.3-0.4c3.9,0,7.5,0.6,7.5,3.7
	c0,4.4-4.9,9-8.4,14.5c-0.5,0.8-1.1,1.5-1.1,1.9c0,0.2,0.2,0.4,0.7,0.4c0.1,0,0.3,0,0.4,0c3.2-0.2,5.6-0.2,7.9-0.3
	c1.6,0.5,2.4,1.6,2.4,2.6c0,1.1-0.9,2.3-2.6,2.7c-3.1,0.1-6.2,0.3-9.3,0.3c-3.2,0-7.1,0-7.1-2.9c0-3.3,6.8-11.5,9.9-16.1
	c0.4-0.6,0.8-1,0.8-1.3c0-0.2-0.3-0.2-1.1-0.2c-3,0-6.8,0.2-9.7,0.2C7572.4,3648.6,7571.5,3647.4,7571.5,3646.1z"/>
<path class="st1" d="M7604.4,3642.9c6.8,0,10.1,7.7,10.1,15.2c0,4.8-3.2,10.8-8.8,10.8c-6.9,0-10.5-9.1-10.5-15
	C7595.2,3647.9,7598,3642.9,7604.4,3642.9z M7609.2,3658.1c0-3-1.4-9.8-5-9.8c-2.6,0-3.7,2.4-3.7,5.2c0,2.1,1.3,9.7,5,9.7
	C7607.9,3663.2,7609.2,3660.8,7609.2,3658.1z"/>
<path class="st1" d="M7623.2,3671.2c-1.8,0-3.1-1-3.1-2.6c0.1-1.5,0.9-2.8,2.1-3.6c1.8-0.8,2.6-1.6,2.6-3.1c0-2-2.2-4.8-4.2-6.4
	c-1.9-1.8-2.8-3.2-2.8-4.6c0-3.7,5.7-10.7,12.3-12.3c0.3-0.3,0.7-0.4,1.1-0.4c2,0,3.6,1.4,3.6,2.4c0,1.3-1.3,1.7-2.2,2.1
	c-2.5,1-4.6,2.6-6.8,3.9c-1.3,0.8-2.9,2.4-2.9,4c0,0.8,0.4,1.5,1.1,2c3.2,2.6,6.4,6.4,6.4,10.1c0,0.2,0,0.4,0,0.6
	C7630.3,3667.3,7627.1,3671.2,7623.2,3671.2z"/>
<path class="st1" d="M7636.1,3646.1c-1.9-0.2-2.7-1.4-2.7-2.7c0.1-1.5,1.3-2.7,2.9-2.6c0,0,0.1,0,0.1,0h1.2c0.4-0.2,0.8-0.3,1.2-0.3
	c0.4,0,0.8,0.1,1.1,0.3h8.7c1.6,0.5,2.4,1.6,2.4,2.6c0,1.1-0.9,2.3-2.6,2.7h-6.1c-0.8,0.3-0.8,0.6-0.8,0.8c0,1.7,0.2,3.2,0.3,4.9
	c0,0.7,0,1,0.5,1c0.2,0,0.4,0,0.6-0.1c1.7-0.4,3.4-0.7,5.1-0.8c1.6,0.5,2.4,1.6,2.4,2.6c0,1.1-0.9,2.3-2.6,2.7c-1.8,0-2.9,0-4.4,0.1
	c-0.8,0-1.1,0.2-1.1,1.1c0,1.3,0.2,2.6,0.2,4c0,0.9,0.6,1,1.4,1c3.4,0,6.8-1.5,10.2-1.5c1.9,0,3,1.3,3,2.6c0,1.1-0.8,2.3-2.6,2.7
	c-3.8,0.3-7.1,1.6-11.5,1.6c-3.1,0-5.9-1.1-5.9-5.4c0-4.1-0.3-8.2-0.7-12.6C7636.3,3649.3,7636.2,3647.7,7636.1,3646.1z"/>
<path class="st1" d="M7662.6,3662.1c-0.3,2.5-0.7,7.1-3.1,7.1c-1.6,0-2-1-2-2.1c0-1.6,0.2-3.2,0.5-4.8c1.2-6.1,2.1-12.3,2.7-18.5
	c0.5-4.2,4-7.5,8.2-7.7c3.7,0,6,2.5,6,5.7c0,3.8-1.2,8.1-5.1,10c-0.9,0.5-1.3,0.9-1.3,1.7c0,0.6,0.2,1.1,0.5,1.6
	c2.1,3.5,4.1,7.1,8.3,8.5c1.1,0.5,2.8,2.3,2.8,2.9c0,1.1-0.8,2-1.9,2.1c0,0-0.1,0-0.1,0c-0.7-0.1-1.4-0.3-2.1-0.6
	c-5.2-2.5-8.7-6.6-11.8-11.7c-0.1,0-0.2,0-0.3,0c-0.1,0-0.3,0-0.4,0C7663,3659.4,7663,3659,7662.6,3662.1z M7669.3,3640.4
	c-2.1,0-5.5,3.7-5.5,5.9c0,1.3,0.6,2.1,1.6,2.1c0.4,0,0.7-0.1,1-0.3c2.2-1.2,3.6-3,3.7-5.6
	C7670.2,3640.9,7670.1,3640.4,7669.3,3640.4z"/>
<text transform="matrix(1 0 0 1 7131.5083 3358.5439)" class="st1" style="font-family:'GentyDemo-Regular'; font-size:35.6238px;">Z O S E R</text>
<text transform="matrix(1 0 0 1 7131.5083 3403.7891)" class="st1" style="font-family:'GentyDemo-Regular'; font-size:35.6238px;">z o s e r</text>
<text transform="matrix(1 0 0 1 7302.313 3375.0527)" class="st1" style="font-family:'GentyDemo-Regular'; font-size:9.1362px;">Lorem ipsum</text>
<path class="st1" d="M6074.8,3476.6c-18.4,26.2-18.7,65-18.7,71c0,0.5,0,1,0,1.6c-0.5,6.5-2.6,52.6,25.9,72.4
	c1.2,0.8,2.5,1.5,3.9,1.9c7.2,2.1,28.9,4.6,21.7-47.4c-0.2-1.2-0.5-2.4-0.8-3.6c-2.8-8.5-14.9-46.5-11.9-61.1
	c3.4-16.5,8.4-23.6,21.1-26.1c11.9-2.3-20.3,3.3-16.6,4.4c0.2,0.1,0.5,0.1,0.7,0.2c3.1,1.1,30.6,10.5,31.7-15.9
	c1.1-25.8-27.7-29.3-32.3-29.7c-0.4,0-0.9-0.1-1.3-0.2c-3.9-0.8-22.2-4.5-26.8-3.5c-5.1,1.1-17.9,0-19-5.2s9.8-5.9,14.8-3.7
	c5,2.1,70.2,9.6,77.9,12.7c7.8,3,32.2,7.2,28.2-16.9s-19.1-41.7-34.1-45.6c-15-3.9-16.3,17.5-18.1,19.9c-1.8,2.5-4.7,10.6-8.9,12.4
	c0,0-41.1,4.8-64.6-3.3c-12.3-4.3-20-1.4-24.6,2.2c-5.2,4.1-7.6,12-5.4,19.4c1.9,6.3,7.3,13.2,21.2,15.5c21.7,3.6,37.9,5,44,5.5
	c2,0.2,3.9,0.8,5.7,1.9"/>
<path class="st1" d="M6504.6,3748.5c0,0,5.4-9.3-6-31.4c-6-11.6-4.3-19.6-1.3-24.7c3.3-5.7,10.8-9.3,18.4-8.1
	c6.5,1,14.1,5.3,18.4,18.8c6.6,21,10.4,36.8,11.8,42.7c0.5,2,1.4,3.8,2.7,5.3c2.8,3.4,7.6,8.3,10.3,5.1c3.4-4.2-9.8-25.1-12.3-28.9
	c-0.3-0.5-0.6-1.1-0.9-1.6c-2.4-5.1-11.2-28.4,11.2-49.5c23.3-21.9,61.6-27.9,67.6-28.7c0.5-0.1,1-0.2,1.5-0.3
	c6.3-1.4,51.7-10.1,75.4,15.2c1,1.1,1.8,2.3,2.5,3.6c3.1,6.8,8.7,28-43.8,28.3c-1.2,0-2.5-0.1-3.7-0.3c-8.8-1.6-48.1-8.1-62.1-3
	c-15.8,5.7-22.1,11.7-22.8,24.6c-0.6,12.1,11.2,37.9,12.8,41.3c0.1,0.2,0.2,0.4,0.3,0.6c1.6,2.9,14.8,28.8-11.2,33.7
	c-25.4,4.8-33-23.2-34-27.7c-0.1-0.4-0.2-0.9-0.4-1.3c-1.4-3.7-7.6-21.4-7.3-26c0.3-5.2-2.5-17.7-7.9-18.1s-4.4,10.6-1.6,15.2
	c2.8,4.7,13,35.2,17.1,42.5c4.1,7.3,11.7,30.8-12.7,30.3c-24.4-0.5-44-13-50-27.2s15-18.7,17.1-20.7
	C6495.8,3756.1,6503.5,3752.9,6504.6,3748.5z"/>
<path class="st1" d="M6317.1,3667.7c0,0,2.8-9.3-3.2-31.4c-3.2-11.6-2.3-19.6-0.7-24.7c1.8-5.7,5.7-9.3,9.7-8.1
	c3.4,1,7.5,5.3,9.7,18.8c3.5,21,5.5,36.8,6.2,42.7c0.2,1.8,0.7,3.6,1.4,5.3c1.5,3.4,4,8.3,5.4,5.1c1.8-4.2-5.2-25.1-6.5-28.9
	c-0.2-0.5-0.3-1.1-0.5-1.6c-1.2-5.1-5.9-28.4,5.9-49.5c12.3-21.9,32.6-27.9,35.7-28.7c0.3-0.1,0.5-0.2,0.8-0.3
	c3.4-1.4,27.3-10.1,39.8,15.2c0.6,1.1,1,2.3,1.3,3.6c1.7,6.8,4.6,28-23.1,28.3c-0.7,0-1.3-0.1-1.9-0.3c-4.7-1.6-25.4-8.1-32.8-3
	c-8.4,5.7-11.7,11.7-12,24.6c-0.3,12.1,5.9,37.9,6.8,41.3c0.1,0.2,0.1,0.4,0.2,0.6c0.8,2.9,7.8,28.8-5.9,33.7
	c-13.4,4.8-17.4-23.2-18-27.7c-0.1-0.4-0.1-0.9-0.2-1.3c-0.7-3.7-4-21.4-3.9-26c0.2-5.2-1.3-17.7-4.2-18.1
	c-2.8-0.3-2.3,10.6-0.8,15.2c1.5,4.7,6.9,35.2,9,42.5c2.2,7.3,6.2,30.8-6.7,30.3c-12.9-0.5-23.2-13-26.4-27.2s7.9-18.7,9-20.7
	C6312.4,3675.3,6316.5,3672.1,6317.1,3667.7z"/>
<path class="st1" d="M6850.1,3690.8c-15.8,31.5-44.4,15.4-49.5,12.7c-0.6-0.3-1.1-0.6-1.6-1c-3.8-2.8-24.7-17.8-28.9-13.9
	c-3.2,3,1.7,8.5,5.1,11.6c1.5,1.4,3.3,2.5,5.3,3c6,1.5,21.8,5.8,42.7,13.4c13.5,4.8,17.8,13.5,18.8,20.9c1.1,8.6-2.4,17.1-8.1,20.9
	c-5.1,3.4-13.1,5.3-24.7-1.5c-22-12.9-31.4-6.8-31.4-6.8c-4.5,1.3-7.7,10-9.8,12.6c-2.1,2.4-6.5,26.2-20.7,19.4
	c-14.3-6.8-26.7-29.1-27.2-56.8c-0.5-27.7,23.1-19,30.3-14.4c7.3,4.7,37.8,16.2,42.5,19.4s15.6,4.3,15.2-1.8
	c-0.3-6.1-12.9-9.3-18.1-9c-4.6,0.3-22.3-6.8-26-8.3c-0.4-0.2-0.8-0.3-1.3-0.4c-4.4-1.2-32.4-9.9-27.7-38.7
	c4.9-29.5,30.8-14.5,33.7-12.7c0.2,0.1,0.4,0.3,0.6,0.4c3.5,1.8,29.3,14.1,41.3,14.5C6834.8,3675.1,6864.3,3662.6,6850.1,3690.8z"/>
<text transform="matrix(1 0 0 1 6662.022 3315.3613)" class="st1" style="font-family:'Kelsi1-fill'; font-size:243.633px;">s</text>
<text transform="matrix(1 0 0 1 5675.3081 3227.8867)" class="st1" style="font-family:'Kelsi1-fill'; font-size:243.633px;">ZOSER</text>
<path class="st3" d="M7806.8,4424.4c-1.1-23.7,44.8-75.6,68.5-95.1c-22,14.4-41.7,14.2-51.9,15.8c-10.1,1-24-22.8-25.2-80.9
	c-1.5-50.8,1.7-77.9,33.7-87.1c2.8-0.8,5.7-1.4,8.6-1.9c2.2,0,4.5-0.7,6.8,0c11.6,7.2,25,11.2,38.6,11.6c2.6,0.1,5.3,0,8-0.1
	c18.9-1.6,37.9,0,55.4-8.4c3.8-1.5,8.4,0.8,10.7,4.6c7.6,17.5,0.8,35.8-1.5,54.1c-1.5,8.4-2.3,16.8-1.3,25.1c0,2.7,0,5.3-0.1,8
	c-0.5,23.8-3.1,46.6-11,61.9c-12.3,25.8-41.4,74-46.9,88.6c22.7-27.4,37.1-49.8,47.7-48.5c10.9,1.3,33.8,138,9.9,153.5
	c-23.6,15.5-119.2,26.8-131.9,25.5C7812.1,4548.6,7808.1,4449.3,7806.8,4424.4z"/>
<path class="st3" d="M7955.6,4376c-0.3-43.1,3.2-78.4,9.2-106.8c0.4-1.9,0.8-3.8,1.2-5.6c8.6-28.3,14.7-61,39.1-79.5
	c1.4-1.2,2.8-2.4,4.3-3.4c8.5-6.3,17.3-9.2,25.7-9.1c40-1.2,79.7,44.9,80.2,187c0.2,142.7-46.4,187.3-77.6,191.4
	C8006,4554.2,7956.8,4526,7955.6,4376z M8035.7,4450.2c13.1-1.5,23.8-33,24.6-98.4c0.5-43.4-10.4-89.2-22.9-90.5
	c-12.5-1.8-25,44.8-26.1,91.6C8011.8,4417.8,8022.6,4451.8,8035.7,4450.2L8035.7,4450.2z"/>
<path class="st3" d="M8103.6,4382.2c3.8-2.8,19.3-7.1,30.2-9.2c-5.5-10.8-10.9-23.3-13.5-51.5c-2.8-31.1,1.8-63.7,6.4-93.5
	c-7.5,25.3-9.1,53.5-10.4,89.6c-8.5-0.1-16.1-14.9-7.6-77.9c7.6-55.2,37.8-65,62.6-64.7c27.2,0.3,45.4,40.6,47.8,79.5
	c2.2,36.7,1.3,68.8-23,74.7c-5.6,1.1-9.6,2.7-14.7-0.2c-6.1-5.1-8.8-23.8-12.2-29.5c-3.4-5.7-6.1-1.8-4.9,5.6
	c1.2,9,9.3,27.7,15.6,32.3c7.7,6.3,16.5-0.9,19.2,0.2c2.4,1.7,24.8,47.1,23.3,101.8c-1.2,32.1-5.2,124.6-65.8,114.9
	C8095.9,4545.1,8098.3,4386.1,8103.6,4382.2z M8163,4430.8c3-6.2-3.8-14.7-11.7-26.6C8152.5,4422.2,8158.1,4443.2,8163,4430.8z"/>
<path class="st3" d="M8218.7,4455.2c0.2-19.2,10.6-20.2,16-20.1c-3.7-51.4-5.9-68.9-5-142.2l10.3-12.9l-28,5.3
	c-5.8-7.4-8.8-69.5-7.7-96.5c0.4-15.8,34.6-23.3,70.1-24c25.1-0.3,53.9,13,60.5,19.3c15.6,14.3,9.7,107.8-2.2,117.3
	c-8.3,6.7-34-5.5-51.7-2.3l1.2,14.7l25.4-3.7c10.7-1.6,14.1,74.6,7.3,82.4c-3.8,9-13.5,11.1-20.4,11l1.4,18.1l53-17.4
	c13.9-4.4,15.5,109.6,6.5,127.5c-9,18.5-111.4,25.8-125.2,20.5C8216.6,4547.6,8218.5,4475.5,8218.7,4455.2z"/>
<path class="st3" d="M8424.9,4441.2l12.2-15.1c-6.2,3.9-9.4,5.5-16.1,6.6c-4.5,1.6-10.6-2.9-15.9-5.8c7.9,9.7,11.3,13.1,15.8,14.3
	c-0.5,45.1,4.5,75.1,10.6,97.7c-19.7,21.2-51.5,24.8-63.7,4.9c-13.9-21.6-2-130.9-2.5-196.3c-39.2,6.3-30.7-107.5-28.5-139.6
	c2.5-34.4,34.5-34,73.9-29.6c39.4,5,71.4,47.6,70.5,125.5c-0.5,45.1-12.9,80.5-22.9,88.3c19.8-4.3,48.7,73.9,48.3,109.4
	c-0.5,44.5-45.4,79.6-60.8,52.9C8429.8,4526.4,8425.2,4483.5,8424.9,4441.2z M8413.9,4356.5c5.4-2.8,15.3-8.3,14.9-20.7
	c-0.4-13-11-15.9-17.2-12L8413.9,4356.5z"/>
<text transform="matrix(1 0 0 1 5763.9937 4110.8496)" class="st1" style="font-family:'GraffitiXenoa-Regular'; font-size:266.4735px;">zoser</text>
<path class="st1" d="M6843.1,4344.8c5.6,0.7,14.6,1.2,19.6,1.4c16.5,0.7,22.8,6.9,26.9,27.1c1.7,8.3,2.2,30.1,1,39.3
	c-2.2,17.8-12,47.9-21.6,67.3c-12.4,24.5-35,50.9-48.4,56.7c-2.3,0.9-3.4,1.9-3.4,3c0,5.8,19.1-8.1,33.3-24.3
	c9.2-10.6,14.3-17.4,20.4-27.8l4.8-8.1l2.7,1.6c7,3.7,11.8,11.1,14.2,21.7c1,5.3,1.3,8.3,1,17.1c-0.1,9.5-0.5,11.6-2.6,19.2
	c-7,24.3-21.7,43.5-38.1,49c-6.1,2.1-21.5,1.9-28.4-0.2c-22.4-7.2-32-16.2-37.1-34.5c-4.9-18-3.9-38.9,3.3-66.2
	c1.6-5.8,4.2-14.3,5.7-19c2.9-7.4,3.3-8.1,5.3-8.1c9.6,0,31.5-15.3,41.9-29.4c5.9-7.6,12.1-18.3,11.2-19c-0.4-0.2-3.1,3-6.1,7.2
	c-15.4,22.2-36.2,34.2-50.9,29.6c-7.7-2.3-12.8-8.8-16.4-21.1c-1.7-5.6-1.8-7.2-1.8-18.3c0.1-9.9,0.4-13.4,1.6-18.7
	c4.6-20.6,15.2-36.8,27.8-42.6C6816.3,4344.8,6830.5,4343.4,6843.1,4344.8z"/>
<path class="st1" d="M6919.7,4364.9c6.4-5.8,7-6,13.8-6.9c3.8-0.5,7.3-1.2,7.7-1.6c1.4-1.6,11.5-0.9,15.4,1.2
	c6,2.8,11.3,8.8,16.3,18c7,12.7,11.6,29.6,13.8,50.7c1.6,14.8,1.6,48.6,0,64.5c-4,41-16.5,78-30.3,90.7c-8.1,7.2-17.7,10-24.7,6.7
	c-10.4-4.4-19.3-16.7-28-38.6c-11.3-28.2-15.7-50.9-15.9-80.1c0-22.9,2.5-41.4,8.2-62C6901.1,4388.5,6908.6,4375.1,6919.7,4364.9z
	 M6931.9,4463c0,20.8,3,33.8,7.8,33.8c1.7,0,2.5-0.9,3.3-3.2c1.4-3.9,2-20.8,1-27.8c-0.9-6-3-10.2-5.1-10.2c-1.7,0-1.7-0.2-1.3-5.1
	c0.7-7.6,1.8-11.1,3.5-10.9c1.6,0.5,2-1.9,0.7-4.2c-1.2-2.3-4-1.9-5.9,0.9C6933.1,4440.6,6931.9,4448.7,6931.9,4463z"/>
<path class="st1" d="M7028.7,4411.7c0.7-2.8-1.4-2.5-2.3,0.2c-1.3,4.6-2,14.1-1.3,21.1c1.8,20.1,9.1,32.4,22,37.5
	c5.6,2.3,10.4,1.9,13.9-1.2l2.5-2.1l2.7,3.2c3.3,4.2,6.5,12.7,8.5,22c1.8,8.8,2,25.4,0.4,36.3c-2.5,17.1-9.2,35.9-16.1,44.2
	c-9.5,11.8-29,19.2-41.5,16c-16.5-4.6-27.8-21.3-30.7-45.1c-1-9-0.5-24.8,1.2-31.5c2.1-8.1,7.9-18.5,12.5-22
	c10.1-8.3,22.1-5.3,29,6.9c2,3.5,4.8,15.5,4.8,20.1c0,1.2,0.4,2.1,0.8,2.1c1,0,0.1-11.8-1.4-18.5c-3.6-15-14.8-23.8-26.8-20.8
	c-2.6,0.7-5.2,1.4-5.7,1.9c-0.7,0.5-2.5-1.4-4.7-4.6c-6.2-9-9.5-18-11.2-31.5c-2.2-16.2,0-41.9,5.1-58.5c4.7-16,14.2-31.2,23.2-37.7
	c7.7-5.6,14.2-7.6,19.9-6c17.7,4.6,30.8,21.7,35.5,46.5c1.7,9.3,2.3,27.5,1.2,37.2c-0.7,5.3-1.8,10.6-3.3,15.7
	c-4.6,16.2-11.2,21.3-21.6,16.9c-5.6-2.3-8.6-5.1-11.8-10.6C7027.5,4439.2,7025.7,4424.4,7028.7,4411.7z"/>
<path class="st1" d="M7072.2,4441.7c4.4-42.8,18.3-72.9,38-82.1c4.4-2.3,6.6-2.5,13.1-2.1c8.7,0.7,14.6,3.7,22.6,11.6
	c11.5,11.3,18,35.9,17.2,65.5c-0.3,10.9-0.5,13.9-3,25.2c-3.8,18.3-3.4,17.6-8.8,15.7c-3.9-1.4-5.5-1.2-10.1,0.5
	c-9.9,3.7-17.3,12.7-22.1,26.6c-1.3,3.9-2.2,5.8-2.3,4.6c-0.9-5.3-2.3-9.5-3.8-10.6c-3.4-3-3.9,2.3-0.9,7.9c2.6,4.6,3.9,9.8,3.9,15
	c0,5.6,1,5.6,1.6,0c0.5-5.1,4.3-16.7,7.3-22c7.3-13,19.9-19.2,28.9-14.1c4.9,2.8,7.7,6.5,9.6,13.7c2.5,8.6,2.7,25.5,0.8,39.1
	c-5.5,37.3-21.3,57.1-42.2,52.8c-21.6-4.4-36.3-27.5-45.7-72C7071.9,4496.1,7070.1,4462.6,7072.2,4441.7z M7110.9,4448.2
	c0.4,2.3,1.7,1.2,1.7-1.6c0-2.3,4.3-14.8,5.1-14.8c0.4,0,0.8,0.9,0.9,2.3c1.2,7.9,11.6,2.1,11.6-6.5c0-13-12.1-9.3-16.9,5.1
	C7111.2,4438.5,7110.3,4445,7110.9,4448.2z"/>
<path class="st1" d="M7265,4382.3c1.4,5.6,1.6,7.6,1.6,20.8c0,13.4-0.3,16-2.2,26.6c-4,22.2-10.5,38.9-18.1,45.8
	c-4,3.7-4.8,4.2-10.3,3.9c-10.8-0.2-15.1-5.6-19.9-24.5c-4.4-17.1-5.5-35.2-2.7-47.2c0.8-3.7,0.8-3.9-0.3-3.7
	c-0.7,0.2-1.8,3.2-2.7,6.5c-1.4,5.6-1.7,7.9-1.6,18.5c0.1,18.7,3.6,39.6,8.6,50.2c1.3,2.8,3.1,9.7,4.7,17.4
	c7.4,37.2,5.6,59.9-6.4,79.1c-6.5,10.6-10.1,13.4-17.7,13.9c-3.9,0.2-7.2-0.2-8.8-1.4c-7.2-4.4-14.3-16-18.3-29.2
	c-6.8-22.7-9.4-56.7-7.9-103.9c0.8-25.7,0.8-26.6-0.7-40.9c-2.7-26.8-2-37.5,3.4-48.1c6.1-12.3,14.1-16.4,23.6-12.3
	c5.2,2.3,13.1,9.3,15,13c1,2.3,1.2,2.3,5.7-1.9c7.5-6.5,14.1-9.3,23.6-9.9c9.2-0.7,13.8,0.7,20.3,6.2
	C7258,4364.9,7262.8,4374.2,7265,4382.3z"/>
<path class="st1" d="M6782,5100.8c-2.1-14.6-0.8-38.4,3-55.5c5.3-24.1,11.8-41.2,22.8-60.6l8.1-14.3l6.9-0.2c6,0,7.5-0.5,13.9-4.2
	c14.8-9,29.8-25.5,40.3-44.2c6-10.4,9-18,7.9-19.9c-0.3-0.2-3,4.2-6.1,9.9c-10.9,20.6-28.2,37-45.9,44c-7.4,2.8-11.2,3-16.4,0.7
	c-5.6-2.5-10.1-7.9-15.7-18.5c-9.8-18-14.1-39.8-12.4-62.7c0.8-12.7,2.6-20.1,6.8-28c8.5-16.2,22-20.8,44.4-15
	c19.3,4.9,29.5,4.9,48.1,0.5c18-4.4,29.7-3.5,36,2.5c6.2,6.2,10.7,19.4,11.3,34.2c1.6,37-20.7,103.2-46.3,137.4
	c-14.8,19.7-29.8,33.8-57.3,54.1c-4.4,3.2-5.9,4.9-5.9,6.5c0,2.1,0.8,2.3,7.5,3c4,0.5,8.7,1.4,10.4,2.1c4.7,1.9,9.6,1.6,10.1-0.7
	c0.7-3.2-0.7-5.6-4.7-8.1c-2.2-1.2-4.3-2.5-4.8-2.8c-0.4-0.5,2.2-2.5,5.9-5.1c3.8-2.3,10.7-7.9,15.6-12c15.9-14.1,27.2-28,39.3-48.1
	c6.6-10.9,7-11.3,9.2-10.6c3.9,1.2,10.3,7.4,12.8,12.5c5.3,10.9,7.9,31.2,7.4,56c-0.9,37.2-5.7,63.2-14.7,79.1
	c-7.4,13.2-16.8,19-31,19c-4.3,0-9.2-0.2-11.1-0.5c-1.8-0.2-7.4,0.7-12.4,2.1c-19.3,5.1-37.6,6.2-48,3
	C6800,5150.8,6786.2,5129,6782,5100.8z"/>
<path class="st1" d="M6949.5,5105.4c-12.8-34-19.4-90.9-15.7-135.6c3.8-47.7,17-87.9,38.3-116.1c9.2-12.3,18-18,23.9-15.7
	c1.8,0.7,3.8,1.9,4.3,2.5c0.5,0.9,4.2,1.4,9.8,1.6c9.9,0,13.7,1.9,23,10.4c8.6,8.3,19,28.5,24.6,47.9c9.9,34.9,12.1,86.1,6,135.1
	c-7.5,61.3-29,109.2-53.9,120.5c-6,2.5-16.1,2.8-22,0.5c-5.2-2.3-13.7-9.7-19.5-16.9C6962.2,5132.5,6953.5,5116.5,6949.5,5105.4z
	 M7002.9,5041.6c2.6-2.5,3.5-7.9,3.5-22c0-8.1-0.3-15-0.8-17.6c-1.2-5.6-4.3-11.3-6.4-11.3c-1.7,0-1.7,0,0.1-19.9
	c1.2-11.6,1-13.4-0.7-12c-2.6,1.6-6,17.1-7,32.6C6989.7,5020.3,6995.9,5048,7002.9,5041.6z"/>
<path class="st1" d="M7068.6,5106.1c-3.3-12.5-5.5-25.9-5.5-33.5c0-5.8,2.7-22.9,4.8-31.2c1.8-6.7,8.6-22,11.4-25.7
	c10.5-13.9,21.1-10.4,32.9,10.6c4.8,8.6,7.4,17.1,10,33.3l2,12.5l-2,3.5c-1.3,2.3-1.9,4.8-2,7.4c0,4.9,0.7,5.8,2.1,3.2
	c0.8-1.2,4-4.4,7.3-7.2c4.6-4.2,6-5.8,6-7.6c0-2.1-0.5-2.3-3.5-2.8c-3.1-0.2-3.4-0.5-3.8-3.5c-1.5-13-5-25.7-10.3-37.7
	c-5.1-11.3-10.3-20.1-15.1-25.2c-2-2.1-4.6-4.9-5.9-6c-4-4.4-11.7-26.8-14.6-42.8c-2.2-12.3-2.5-31.7-0.7-44.4
	c2.6-18.7,8.5-36.8,16.4-50.7c4.8-8.3,6.4-10.4,12.2-15.7c7.5-6.9,13.1-9.3,20.8-9.3c17.4,0.2,30.4,14.1,37.7,40.3
	c3.6,13,4.7,23.4,4.3,40c-0.7,30.5-7.3,56.5-16.4,64.3c-11.5,9.9-23.3-4.6-26.5-32.9c-0.9-7.2-0.9-9.5-0.1-17.4
	c0.5-5.1,1.3-10.6,2-12.5c0.8-3,1.2-3.2,3.8-3c5.3,0.5,5.9-3.7,1-7.9c-1.8-1.8-3.3-3.8-4.6-6c-2.2-4.2-3.8-3.2-3.8,2.5
	c-0.1,2.2,0.4,4.3,1.3,6.2c1.3,2.3,1.3,2.3,0.1,4.6c-2.7,5.1-4.9,15.7-5.2,25.7c-0.5,16.4,2.1,29.2,8.1,40.7
	c8.2,16,19.8,18.3,29.7,5.8l3.8-4.6l3.4,4.6c10.1,13.4,14.7,28,16.1,51.8c1.1,16.8,0,33.7-3.1,50.2c-6.8,34.7-24.1,62-44.1,69.2
	c-7.4,2.5-20.8,3.9-26.7,2.3c-9.2-2.3-19.8-8.8-26-16c-3.4-4.5-6.5-9.3-9.1-14.3C7072.5,5118.8,7071.1,5115.4,7068.6,5106.1z"/>
<path class="st1" d="M7190.8,5001.5c-11.2-22.4-17.8-54.4-18-85.4c0-16.2,0.9-23.1,4.3-35.9c6.1-23.4,17.6-40.3,33.3-50.2
	c15.4-9.5,32.7-12.5,42.9-7.2c11.1,5.6,19.6,15,26.5,29.6c5.9,12,7.2,19.2,7.5,40c0.3,18.3-0.5,25.4-4.6,40
	c-6.8,24.5-19.8,38.9-33.7,37c-9.2-1.2-18.6-8.8-25.1-19.9c-4.6-7.9-6.1-14.6-6.1-26.1c0-12.3,4.3-30.3,7.5-31.7
	c1.8-0.9,2.1-3.5,0.5-4.4c-2.6-1.9-6.6,5.3-9.8,17.1c-1.7,6.5-1.8,8.1-1.8,21.5c0,13.7,0,14.6,1.7,19.7c3.9,11.8,11.5,22,20.9,28
	c4.4,3,6.6,3.5,13.8,4.2c10.1,0.9,11.3,1.9,14.2,11.8c2.6,9.7,3.1,18.3,1.6,27.5c-2.6,15-3.5,16.7-11.8,19.2
	c-7.9,2.5-12.2,6.2-17.3,15.5c-7.2,13-10.5,28.7-8.3,39.8c0.9,5.1,3,7.9,2.2,3c-2-11.3-0.8-19.7,4.2-31.5
	c6-14.1,12.1-19.7,21.7-19.9c5.2,0,6.4,0.5,9.6,3.2c23.4,20.6,15.2,81-4.6,99.5c-9,8.3-25.9,13.9-35.5,11.6
	c-17.4-4.4-32.7-28.2-36.6-57.8c-3-23.1,2.1-52.5,12-68.5c3.3-5.6,3.5-6.2,2.5-7.4C7202.8,5022.1,7193.7,5007.6,7190.8,5001.5z"/>
<path class="st1" d="M7287.4,4912.5c-3.5-17.1-1.7-33.8,5.3-47.2c2.1-3.9,5.2-8.6,7-10.4c4.2-3.9,22.6-12.7,35.1-16.4
	c20.9-6.2,39.4-3,57.1,9.7c13.3,9.7,22.4,27.3,25.5,49.3c1.8,13.2,2.3,34.7,1,48.1c-2.2,23.4-6.1,37.7-13.4,50.9
	c-4.3,7.6-6,10-12.2,15c-3.9,3.5-7.2,6.7-7.3,6.9c0,0.5,1.2,1.2,2.6,1.6c2.7,0.9,12.9,9.7,18.7,16.2c10.4,12,17.7,32.4,17.7,49.5
	c0,8.6-3.6,31.2-6.6,41.6c-5.7,19.7-13.7,28.5-25.9,28.5c-9.9,0-21.7-7.9-30.7-20.6c-8.2-11.8-7.9-10.9-8.8-30.8
	c-1.6-37.7-5.3-61.5-11.8-74l-2.6-4.9l5.9-0.7c6.6-0.9,9.8-2.5,9.8-5.1c0-1.2-0.4-1.4-1.7-0.9c-3.3,0.7-6.6,1.2-9.9,1.6
	c-4.4,0.7-8.3,1.6-8.7,2.3c-0.5,0.9-0.3,2.3,0.8,4.4c7.4,16.4,10.9,35.9,12.9,71.7c1.7,31.9,0.1,44.7-7,52.1
	c-6.8,7.4-14.1,9-23.7,5.3c-13.4-5.1-22.5-19.4-26.8-42.6c-1.7-8.8-1.7-10.4-1.8-33.5c0-20.4,0.3-28,1.8-47.4
	c4.6-58.5,4.6-59.2,4.2-75.2C7293.3,4941.4,7293.7,4943.5,7287.4,4912.5z M7334.1,4960.8c7,0.9,11.7,0.7,15-0.7
	c2.1-1.1,4-2.5,5.6-4.2c5.5-6,9.2-30.8,6.8-44c-1.6-8.1-7-7.4-8.7,1.2c-1.2,6-1,23.4,0.1,28.7c1,4.2,1,4.2-0.9,7.4
	c-2.6,3.9-8.1,6.7-15,7.6C7330.7,4957.8,7328.9,4960.1,7334.1,4960.8L7334.1,4960.8z"/>
<path class="st4" d="M3677.7,8087.8c-1.7-2.1-3.2-4-4.4-5.3c-15.6-17.4-37.2-29.7-60.4-33c-26-3.7-52.4,2.8-76.9,12.4
	s-47.7,22.1-72.3,31.1c-3.7,1.4-7.6,2.6-11.5,2c-3.9-0.6-7.7-3.7-7.7-7.7c0.1-2,0.8-3.9,2-5.5c9-14.2,27-19.1,43.4-22.6
	c38.1-8.1,76.7-14.3,113.8-26.3c11.8-3.8,23.6-8.4,33.4-16.1c9.8-7.7,17.3-19,17.9-31.4c1-19.3-15.5-36.3-34.1-41.5
	c-18.6-5.2-38.6-1.2-56.9,5c-18.3,6.2-36.1,14.4-55.1,17.8c-19,3.4-40.3,1.1-54.8-11.7c-18.4-16.2-23.4-46.5-45.9-56
	c-16.7-7.1-36.1,0.8-50.8,11.6c-31.6,23.3-52.1,60.9-54.5,100.1c-0.8,12.9,0.8,27.1,10,36.2c9.4,9.2,23.9,10.4,37,9.1
	c19.6-2,38.5-8.3,57.1-14.7l95.5-32.5c12.9-4.4,26.1-8.8,39.7-8.4c6.4,0.2,14.4,3.6,13.7,9.9c-0.4,3.2-3,5.7-5.8,7.5
	c-13.4,8.8-30.4,8.9-46.3,10.6c-19.2,2.1-38,6.9-56.7,11.7c-23.9,6.1-48,12.4-69.5,24.5c-11.9,6.7-23.3,15.8-28.9,28.2
	c-4.4,9.8-5,21.1-3.1,31.7c2.3,13,8.7,25.7,19.8,32.9c13.1,8.4,29.9,7.6,45.2,4.7c54.6-10.4,105.8-44.1,161.2-38.4
	c19.4,2,37.9,8.7,56.8,13.1c14.6,3.4,29.5,5.3,44.5,5.6c5.3,0.1,10.8,0,15.5-2.3C3707.4,8131.5,3689,8102.1,3677.7,8087.8z"/>
<path class="st4" d="M4195.5,8018.4c4.6,15.3,4.1,33.2-10.6,42.2c-7.8,4.8-17.1,6.2-26.2,6.7c-21.4,1.2-42.7-2.3-63.7-5.9
	c-5.3-0.9-10.6-1.8-15.3-4.3c-9.9-5.3-15.3-17.2-14.1-28.3c1.2-11.1,8.5-21.1,18-27c8.1-5,17.5-7.2,26.7-9.9
	c9.8-2.8,19.5-6.2,29.6-7.9c10.1-1.7,20.8-1.5,30.1,2.7c9.4,4.2,16.9,12.2,21.4,21.5C4193.1,8011.4,4194.4,8014.9,4195.5,8018.4z"/>
<path class="st4" d="M4043.5,8122c4.4-11.5,9.3-22.9,14.2-34.1c2.5-5.7,5.2-11.6,10.1-15.4c6.6-5.1,15.7-5.2,24.1-4.8
	c14.6,0.8,29.1,2.6,43.4,5.4c4.1,0.8,8.7,2.1,10.4,5.9c2.2,4.9-2,10.4-6.5,13.4c-14.6,9.8-34.2,9.5-49.2,18.9
	c-4.5,2.8-8.8,9.1-5.1,13c2.3,2.4,6.3,2,9.5,1.1c13.1-3.8,24-12.7,35.5-20.1c35.9-23.1,80-31.5,122.5-28.3
	c11.5,0.9,23.3,2.7,32.8,9.1c18.1,12.1,16.1,36.9,8,54.6c-8.5,18.5-25.6,33.2-45.7,37.4c-15.2,3.1-30.9,0.7-46.3,0.8
	c-33.4,0.3-65.8,12.5-94.2,30.1c-11.8,7.3-23.4,15.7-36.9,18.9c-13.5,3.2-29.8-0.4-36.8-12.4c-3-5.2-3.9-11.3-4.3-17.3
	C4027.4,8172,4034.1,8146.6,4043.5,8122z"/>
<path class="st4" d="M4316.9,8012.9c22.1,11.7,45.8,21,65.7,36.2c17.1,13,31.9,31.9,34.7,53.7c2.8,21.7-4.5,46.5-19.7,62.4
	c-13.5,14-32.3,21.8-51.7,21.5c-15-0.3-31.4-7-36.9-20.9c-4.9-12.4,0.1-26.2,2.5-39.3c4.6-24.5-0.2-50.3-10.9-72.9
	c-10.6-22.6-26.8-42.2-45.1-59.1c-10-9.2-21.9-18.2-35.5-18c-1.3,0-2.7,0.2-3.6,1.2c-1.5,1.8,0.1,4.4,1.7,6
	c16.9,17.4,40.5,27.7,55.4,46.8c4.4,5.6,8.1,12.6,6.7,19.7c-2.3,11.6-16.3,16.3-28.1,16.6c-12.4,0.3-24.8-2-36.4-6.6
	c-2.6-1-5.2-2.3-6.9-4.5c-3.3-4.3-2-10.4-1.3-15.8c3.9-33.6-26.5-63.2-25.5-96.9c0.8-26.8,22.5-49.8,47.8-58.6s53.3-5.6,79.1,1.7
	c16.8,4.8,35,13.1,40.7,29.7c3.6,10.4,1.2,22.2-3.7,32.1c-8.7,17.4-26,30.7-45.3,32.4c-19.3,1.6-39.7-9.8-46.3-28.1
	c-0.7-2.1-1.3-4.3-0.7-6.4c0.7-2.4,2.7-4.1,4.4-5.8c2.7-2.7,5.1-5.9,5.7-9.7s-0.9-8.1-4.4-9.7c-3.7-1.8-8.4,0-11,3.2
	s-3.6,7.4-4.2,11.4c-1,7-1.2,14.4,1.4,21c3,7.8,9.4,13.8,15.8,19.2c17.1,14.4,35.6,26.9,55.3,37.4
	C4316.7,8012.8,4316.8,8012.8,4316.9,8012.9z"/>
<path class="st4" d="M3799.7,7984.3c-17.3-19.6-41.8-35.1-67.7-32.5c-20.3,2.1-37.9,14.8-52.2,29.3c-6.8,6.8-13.1,14.3-17.2,22.9
	c-4.1,8.7-5.8,18.8-3.1,28c3,10,10.7,17.8,16.8,26.2c12.4,17.1,18.7,37.7,27.2,57c8.5,19.3,20.3,38.6,39.2,48
	c14.2,7,30.9,7.6,46.4,4.4c9.1-1.9,18.2-5,25.4-10.9c9.6-7.8,15-19.7,17.9-31.7c9.6-40,5-81.2-15.8-117c-4.5-7.8-9.7-15.2-15.5-22
	C3800.7,7985.5,3800.2,7984.9,3799.7,7984.3z M3743.6,8098c-2.1-1.6-4-3.4-5.6-5.4c-5.6-6.4-11.4-13-14.3-20.9
	c-3.7-10-2.5-21.3,1.6-31.2c2.6-6.4,6.6-12.4,12.3-16.2c7.2-4.6,16.6-5.2,24.6-2.1c8,3.1,14.4,9.5,18.3,17.1
	c7.2,14,7.2,33.3-0.1,47.3c-3.6,6.9-9.8,12.7-17.4,14.3c-4.1,0.9-8.3,0.5-12.4-0.3c-2-0.3-3.9-1-5.7-1.9
	C3744.4,8098.5,3744,8098.3,3743.6,8098L3743.6,8098z"/>
<path class="st4" d="M4010.4,8037.8c0.3-0.3,0.5-0.6,0.7-0.9c2.4-3.7-1.5-8.2-5.1-10.8c-48.5-34.5-111.8-41.9-161.6-74.5
	c-10.4-6.8-21.2-18.1-17.3-29.8c1.9-5.7,7-9.7,12.1-12.8c18.8-11.2,41.4-13.8,63-17.2c49.7-7.7,98.4-20.5,146.3-35.9
	c19.1-6.1,39-12.7,58.7-9.4c20.1,3.4,37.6,17.2,47.6,34.9c17.5,30.9,19.2,88.7-25.1,96.8c-18.3,3.3-37-3.1-53.4-11.7
	c-16.4-8.7-31.6-19.7-48.8-26.7c-18.4-7.5-38.4-10.1-58.1-7.6c-9.2,1.2-20.3,5.9-20.2,15.2c0.1,7.3,7.3,12.2,13.9,15.5
	c23,11.4,48.2,19.2,68.4,35.1s34.3,43.7,24.5,67.4c-5,12.2-15.4,21.3-25.7,29.5c-39.8,31.6-88.5,58.1-139,52.4
	c-13.8-1.5-28.2-6.1-36.9-16.9c-5.9-7.4-8.5-16.8-9.9-26.1c-3.2-20.9-1.2-42.2,5.6-62.1c2.7-7.7,6.2-15.5,12.3-21
	c10.5-9.5,26.2-10.5,40.3-8.7c34,4.2,65.3,20.7,99.1,26.5C4004.8,8039.5,4008.4,8039.7,4010.4,8037.8z"/>
<rect x="4630.1" y="7365.5" class="st5" width="1343.6" height="1343.6"/>
<path class="st6" d="M5119.3,8087.8c-1.7-2.1-3.2-4-4.4-5.3c-15.6-17.4-37.2-29.7-60.4-33c-26-3.7-52.4,2.8-76.9,12.4
	s-47.7,22.1-72.3,31.1c-3.7,1.4-7.6,2.6-11.5,2c-3.9-0.6-7.7-3.7-7.7-7.7c0.1-2,0.8-3.9,2-5.5c9-14.2,27-19.1,43.4-22.6
	c38.1-8.1,76.7-14.3,113.8-26.3c11.8-3.8,23.6-8.4,33.4-16.1c9.8-7.7,17.3-19,17.9-31.4c1-19.3-15.5-36.3-34.1-41.5
	c-18.6-5.2-38.6-1.2-56.9,5s-36.1,14.4-55.1,17.8c-19,3.4-40.3,1.1-54.8-11.7c-18.4-16.2-23.4-46.5-45.9-56
	c-16.7-7.1-36.1,0.8-50.8,11.6c-31.6,23.3-52.1,60.9-54.5,100.1c-0.8,12.9,0.8,27.1,10,36.2c9.4,9.2,23.9,10.4,37,9.1
	c19.6-2,38.5-8.3,57.1-14.7l95.5-32.5c12.9-4.4,26.1-8.8,39.7-8.4c6.4,0.2,14.4,3.6,13.7,9.9c-0.4,3.2-3,5.7-5.8,7.5
	c-13.4,8.8-30.4,8.9-46.3,10.6c-19.2,2.1-38,6.9-56.7,11.7c-23.9,6.1-48,12.4-69.5,24.5c-11.9,6.7-23.3,15.8-28.9,28.2
	c-4.4,9.8-5,21.1-3.1,31.7c2.3,13,8.7,25.7,19.8,32.9c13,8.4,29.9,7.6,45.2,4.7c54.6-10.4,105.8-44.1,161.2-38.4
	c19.4,2,37.9,8.7,56.8,13.1c14.6,3.4,29.5,5.3,44.5,5.6c5.3,0.1,10.8,0,15.5-2.3C5149,8131.5,5130.6,8102.1,5119.3,8087.8z"/>
<path class="st6" d="M5637.1,8018.4c4.6,15.3,4.1,33.2-10.6,42.2c-7.8,4.8-17.1,6.2-26.2,6.7c-21.4,1.2-42.7-2.3-63.7-5.9
	c-5.3-0.9-10.6-1.8-15.3-4.3c-9.9-5.3-15.3-17.2-14.1-28.3c1.2-11.1,8.5-21.1,18-27c8.1-5,17.5-7.2,26.7-9.9
	c9.8-2.8,19.5-6.2,29.6-7.9c10.1-1.7,20.8-1.5,30.1,2.7c9.4,4.2,16.9,12.2,21.4,21.5C5634.7,8011.4,5636,8014.9,5637.1,8018.4z"/>
<path class="st6" d="M5485,8122c4.4-11.5,9.3-22.9,14.2-34.1c2.5-5.7,5.2-11.6,10.1-15.4c6.6-5.1,15.7-5.2,24.1-4.8
	c14.6,0.8,29.1,2.6,43.4,5.4c4.1,0.8,8.7,2.1,10.4,5.9c2.2,4.9-2,10.4-6.5,13.4c-14.6,9.8-34.2,9.5-49.2,18.9
	c-4.5,2.8-8.8,9.1-5.1,13c2.3,2.4,6.3,2,9.5,1.1c13.1-3.8,24-12.7,35.5-20.1c35.9-23.1,80-31.5,122.5-28.3
	c11.5,0.9,23.3,2.7,32.8,9.1c18.1,12.1,16.1,36.9,8,54.6c-8.5,18.5-25.6,33.2-45.7,37.4c-15.2,3.1-30.9,0.7-46.3,0.8
	c-33.4,0.3-65.8,12.5-94.2,30.1c-11.8,7.3-23.4,15.7-36.9,18.9c-13.5,3.2-29.8-0.4-36.8-12.4c-3-5.2-3.9-11.3-4.3-17.3
	C5469,8172,5475.7,8146.6,5485,8122z"/>
<path class="st6" d="M5758.5,8012.9c22.1,11.7,45.8,21,65.7,36.2c17.1,13,31.9,31.9,34.7,53.7c2.8,21.7-4.5,46.5-19.7,62.4
	c-13.5,14-32.3,21.8-51.7,21.5c-15-0.3-31.4-7-36.9-20.9c-4.9-12.4,0.1-26.2,2.5-39.3c4.6-24.5-0.2-50.3-10.9-72.9
	s-26.8-42.2-45.1-59.1c-10-9.2-21.9-18.2-35.5-18c-1.3,0-2.7,0.2-3.6,1.2c-1.5,1.8,0.1,4.4,1.7,6c16.9,17.4,40.5,27.7,55.4,46.8
	c4.4,5.6,8.1,12.6,6.7,19.7c-2.3,11.6-16.3,16.3-28.1,16.6c-12.4,0.3-24.8-2-36.4-6.6c-2.6-1-5.2-2.3-6.9-4.5
	c-3.3-4.3-2-10.4-1.3-15.8c3.9-33.6-26.5-63.2-25.5-96.9c0.8-26.8,22.5-49.8,47.8-58.6s53.3-5.6,79.1,1.7
	c16.8,4.8,35,13.1,40.7,29.7c3.6,10.4,1.2,22.2-3.7,32.1c-8.7,17.4-26,30.7-45.3,32.4c-19.3,1.6-39.7-9.8-46.3-28.1
	c-0.7-2.1-1.3-4.3-0.7-6.4c0.7-2.4,2.7-4.1,4.4-5.8c2.7-2.7,5.1-5.9,5.7-9.7s-0.9-8.1-4.4-9.7c-3.7-1.8-8.4,0-11,3.2
	c-2.6,3.2-3.6,7.4-4.2,11.4c-1,7-1.2,14.4,1.4,21c3,7.8,9.4,13.8,15.8,19.2c17.1,14.4,35.6,26.9,55.3,37.4
	C5758.3,8012.8,5758.4,8012.8,5758.5,8012.9z"/>
<path class="st6" d="M5241.3,7984.3c-17.3-19.6-41.8-35.1-67.7-32.5c-20.3,2.1-37.9,14.8-52.2,29.3c-6.8,6.8-13.1,14.3-17.2,22.9
	c-4.1,8.7-5.8,18.8-3.1,28c3,10,10.7,17.8,16.8,26.2c12.4,17.1,18.7,37.7,27.2,57c8.5,19.3,20.3,38.6,39.2,48
	c14.2,7,30.9,7.6,46.4,4.4c9.1-1.9,18.2-5,25.4-10.9c9.6-7.8,15-19.7,17.9-31.7c9.6-40,5-81.2-15.8-117c-4.5-7.8-9.7-15.2-15.5-22
	C5242.3,7985.5,5241.8,7984.9,5241.3,7984.3z M5185.2,8098c-2.1-1.6-4-3.4-5.6-5.4c-5.6-6.4-11.4-13-14.3-20.9
	c-3.7-10-2.5-21.3,1.6-31.2c2.6-6.4,6.6-12.4,12.3-16.2c7.2-4.6,16.6-5.2,24.6-2.1c8,3.1,14.4,9.5,18.3,17.1
	c7.2,14,7.2,33.3-0.1,47.3c-3.6,6.9-9.8,12.7-17.4,14.3c-4.1,0.9-8.3,0.5-12.4-0.3c-2-0.3-3.9-1-5.7-1.9
	C5186,8098.5,5185.6,8098.3,5185.2,8098L5185.2,8098z"/>
<path class="st6" d="M5452,8037.8c0.3-0.3,0.5-0.6,0.7-0.9c2.4-3.7-1.5-8.2-5.1-10.8c-48.5-34.5-111.8-41.9-161.6-74.5
	c-10.4-6.8-21.2-18.1-17.3-29.8c1.9-5.7,7-9.7,12.1-12.8c18.8-11.2,41.4-13.8,63-17.2c49.7-7.7,98.4-20.5,146.3-35.9
	c19.1-6.1,39-12.7,58.7-9.4c20.1,3.4,37.6,17.2,47.6,34.9c17.5,30.9,19.2,88.7-25.1,96.8c-18.3,3.3-37-3.1-53.4-11.7
	c-16.4-8.7-31.6-19.7-48.8-26.7c-18.4-7.5-38.4-10.1-58.1-7.6c-9.2,1.2-20.3,5.9-20.2,15.2c0.1,7.3,7.3,12.2,13.9,15.5
	c23,11.4,48.2,19.2,68.4,35.1s34.3,43.7,24.5,67.4c-5,12.2-15.4,21.3-25.7,29.5c-39.8,31.6-88.5,58.1-139,52.4
	c-13.8-1.5-28.2-6.1-36.9-16.9c-5.9-7.4-8.5-16.8-9.9-26.1c-3.2-20.9-1.2-42.2,5.6-62.1c2.7-7.7,6.2-15.5,12.3-21
	c10.5-9.5,26.2-10.5,40.3-8.7c34,4.2,65.3,20.7,99.1,26.5C5446.4,8039.5,5449.9,8039.7,5452,8037.8z"/>
<path class="st7" d="M472,557.5H157.4c-61.5,0-111.3-49.8-111.3-111.3V131.6C46.1,70.2,96,20.3,157.4,20.3H472
	c61.5,0,111.3,49.8,111.3,111.3v314.6C583.3,507.7,533.5,557.5,472,557.5z"/>
<rect x="3188.6" y="5938" class="st8" width="1343.6" height="1343.6"/>
<path class="st9" d="M3677.7,6660.2c-1.7-2.1-3.2-4-4.4-5.3c-15.6-17.4-37.2-29.7-60.4-33c-26-3.7-52.4,2.8-76.9,12.4
	s-47.7,22.1-72.3,31.1c-3.7,1.4-7.6,2.6-11.5,2s-7.7-3.7-7.7-7.7c0.1-2,0.8-3.9,2-5.5c9-14.2,27-19.1,43.4-22.6
	c38.1-8.1,76.7-14.3,113.8-26.3c11.8-3.8,23.6-8.4,33.4-16.1s17.3-19,17.9-31.4c1-19.3-15.5-36.3-34.1-41.5
	c-18.6-5.2-38.6-1.2-56.9,5c-18.3,6.2-36.1,14.4-55.1,17.8c-19,3.4-40.3,1.1-54.8-11.7c-18.4-16.2-23.4-46.5-45.9-56
	c-16.7-7.1-36.1,0.8-50.8,11.6c-31.6,23.3-52.1,60.9-54.5,100.1c-0.8,12.9,0.8,27.1,10,36.2c9.4,9.2,23.9,10.4,37,9.1
	c19.6-2,38.5-8.3,57.1-14.7l95.5-32.5c12.9-4.4,26.1-8.8,39.7-8.4c6.4,0.2,14.4,3.6,13.7,9.9c-0.4,3.2-3,5.7-5.8,7.5
	c-13.4,8.8-30.4,8.9-46.3,10.6c-19.2,2.1-38,6.9-56.7,11.7c-23.9,6.1-48,12.4-69.5,24.5c-11.9,6.7-23.3,15.8-28.9,28.2
	c-4.4,9.8-5,21.1-3.1,31.7c2.3,13,8.7,25.7,19.8,32.9c13.1,8.4,29.9,7.6,45.2,4.7c54.6-10.4,105.8-44.1,161.2-38.4
	c19.4,2,37.9,8.7,56.8,13.1c14.6,3.4,29.5,5.3,44.5,5.6c5.3,0.1,10.8,0,15.5-2.3C3707.4,6703.9,3689,6674.6,3677.7,6660.2z"/>
<path class="st9" d="M4195.5,6590.8c4.6,15.3,4.1,33.2-10.6,42.2c-7.8,4.8-17.1,6.2-26.2,6.7c-21.4,1.2-42.7-2.3-63.7-5.9
	c-5.3-0.9-10.6-1.8-15.3-4.3c-9.9-5.3-15.3-17.2-14.1-28.3c1.2-11.1,8.5-21.1,18-27c8.1-5,17.5-7.2,26.7-9.9
	c9.8-2.8,19.5-6.2,29.6-7.9c10.1-1.7,20.8-1.5,30.1,2.7c9.4,4.2,16.9,12.2,21.4,21.5C4193.1,6583.9,4194.4,6587.3,4195.5,6590.8z"/>
<path class="st9" d="M4043.5,6694.4c4.4-11.5,9.3-22.9,14.2-34.1c2.5-5.7,5.2-11.6,10.1-15.4c6.6-5.1,15.7-5.2,24.1-4.8
	c14.6,0.8,29.1,2.6,43.4,5.4c4.1,0.8,8.7,2.1,10.4,5.9c2.2,4.9-2,10.4-6.5,13.4c-14.6,9.8-34.2,9.5-49.2,18.9
	c-4.5,2.8-8.8,9.1-5.1,13c2.3,2.4,6.3,2,9.5,1.1c13.1-3.8,24-12.7,35.5-20.1c35.9-23.1,80-31.5,122.5-28.3
	c11.5,0.9,23.3,2.7,32.8,9.1c18.1,12.1,16.1,36.9,8,54.6c-8.5,18.5-25.6,33.2-45.7,37.4c-15.2,3.1-30.9,0.7-46.3,0.8
	c-33.4,0.3-65.8,12.5-94.2,30.1c-11.8,7.3-23.4,15.7-36.9,18.9s-29.8-0.4-36.8-12.4c-3-5.2-3.9-11.3-4.3-17.3
	C4027.4,6744.4,4034.1,6719,4043.5,6694.4z"/>
<path class="st9" d="M4316.9,6585.3c22.1,11.7,45.8,21,65.7,36.2c17.1,13,31.9,31.9,34.7,53.7c2.8,21.7-4.5,46.5-19.7,62.4
	c-13.5,14-32.3,21.8-51.7,21.5c-15-0.3-31.4-7-36.9-20.9c-4.9-12.4,0.1-26.2,2.5-39.3c4.6-24.5-0.2-50.3-10.9-72.9
	c-10.6-22.6-26.8-42.2-45.1-59.1c-10-9.2-21.9-18.2-35.5-18c-1.3,0-2.7,0.2-3.6,1.2c-1.5,1.8,0.1,4.4,1.7,6
	c16.9,17.4,40.5,27.7,55.4,46.8c4.4,5.6,8.1,12.6,6.7,19.7c-2.3,11.6-16.3,16.3-28.1,16.6c-12.4,0.3-24.8-2-36.4-6.6
	c-2.6-1-5.2-2.3-6.9-4.5c-3.3-4.3-2-10.4-1.3-15.8c3.9-33.6-26.5-63.2-25.5-96.9c0.8-26.8,22.5-49.8,47.8-58.6
	c25.3-8.8,53.3-5.6,79.1,1.7c16.8,4.8,35,13.1,40.7,29.7c3.6,10.4,1.2,22.2-3.7,32.1c-8.7,17.4-26,30.7-45.3,32.4
	c-19.3,1.6-39.7-9.8-46.3-28.1c-0.7-2.1-1.3-4.3-0.7-6.4c0.7-2.4,2.7-4.1,4.4-5.8c2.7-2.7,5.1-5.9,5.7-9.7c0.6-3.8-0.9-8.1-4.4-9.7
	c-3.7-1.8-8.4,0-11,3.2c-2.6,3.2-3.6,7.4-4.2,11.4c-1,7-1.2,14.4,1.4,21c3,7.8,9.4,13.8,15.8,19.2c17.1,14.4,35.6,26.9,55.3,37.4
	C4316.7,6585.2,4316.8,6585.2,4316.9,6585.3z"/>
<path class="st9" d="M3799.7,6556.7c-17.3-19.6-41.8-35.1-67.7-32.5c-20.3,2.1-37.9,14.8-52.2,29.3c-6.8,6.8-13.1,14.3-17.2,22.9
	c-4.1,8.7-5.8,18.8-3.1,28c3,10,10.7,17.8,16.8,26.2c12.4,17.1,18.7,37.7,27.2,57c8.5,19.3,20.3,38.6,39.2,48
	c14.2,7,30.9,7.6,46.4,4.4c9.1-1.9,18.2-5,25.4-10.9c9.6-7.8,15-19.7,17.9-31.7c9.6-40,5-81.2-15.8-117c-4.5-7.8-9.7-15.2-15.5-22
	C3800.7,6557.9,3800.2,6557.3,3799.7,6556.7z M3743.6,6670.4c-2.1-1.6-4-3.4-5.6-5.4c-5.6-6.4-11.4-13-14.3-20.9
	c-3.7-10-2.5-21.3,1.6-31.2c2.6-6.4,6.6-12.4,12.3-16.2c7.2-4.6,16.6-5.2,24.6-2.1c8,3.1,14.4,9.5,18.3,17.1
	c7.2,14,7.2,33.3-0.1,47.3c-3.6,6.9-9.8,12.7-17.4,14.3c-4.1,0.9-8.3,0.5-12.4-0.3c-2-0.3-3.9-1-5.7-1.9
	C3744.4,6671,3744,6670.7,3743.6,6670.4L3743.6,6670.4z"/>
<path class="st9" d="M4010.4,6610.2c0.3-0.3,0.5-0.6,0.7-0.9c2.4-3.7-1.5-8.2-5.1-10.8c-48.5-34.5-111.8-41.9-161.6-74.5
	c-10.4-6.8-21.2-18.1-17.3-29.8c1.9-5.7,7-9.7,12.1-12.8c18.8-11.2,41.4-13.8,63-17.2c49.7-7.7,98.4-20.5,146.3-35.9
	c19.1-6.1,39-12.7,58.7-9.4c20.1,3.4,37.6,17.2,47.6,34.9c17.5,30.9,19.2,88.7-25.1,96.8c-18.3,3.3-37-3.1-53.4-11.7
	c-16.4-8.7-31.6-19.7-48.8-26.7c-18.4-7.5-38.4-10.1-58.1-7.6c-9.2,1.2-20.3,5.9-20.2,15.2c0.1,7.3,7.3,12.2,13.9,15.5
	c23,11.4,48.2,19.2,68.4,35.1c20.2,15.9,34.3,43.7,24.5,67.4c-5,12.2-15.4,21.3-25.7,29.5c-39.8,31.6-88.5,58.1-139,52.4
	c-13.8-1.5-28.2-6.1-36.9-16.9c-5.9-7.4-8.5-16.8-9.9-26.1c-3.2-20.9-1.2-42.2,5.6-62.1c2.7-7.7,6.2-15.5,12.3-21
	c10.5-9.5,26.2-10.5,40.3-8.7c34,4.2,65.3,20.7,99.1,26.5C4004.8,6611.9,4008.4,6612.1,4010.4,6610.2z"/>
<path d="M6553.1,6660.2c-1.7-2.1-3.2-4-4.4-5.3c-15.6-17.4-37.2-29.7-60.4-33c-26-3.7-52.4,2.8-76.9,12.4s-47.7,22.1-72.3,31.1
	c-3.7,1.4-7.6,2.6-11.5,2c-3.9-0.6-7.7-3.7-7.7-7.7c0.1-2,0.8-3.9,2-5.5c9-14.2,27-19.1,43.4-22.6c38.1-8.1,76.7-14.3,113.8-26.3
	c11.8-3.8,23.6-8.4,33.4-16.1c9.8-7.7,17.3-19,17.9-31.4c1-19.3-15.5-36.3-34.1-41.5c-18.6-5.2-38.6-1.2-56.9,5
	s-36.1,14.4-55.1,17.8c-19,3.4-40.3,1.1-54.8-11.7c-18.4-16.2-23.4-46.5-45.9-56c-16.7-7.1-36.1,0.8-50.8,11.6
	c-31.6,23.3-52.1,60.9-54.5,100.1c-0.8,12.9,0.8,27.1,10,36.2c9.4,9.2,23.9,10.4,37,9.1c19.6-2,38.5-8.3,57.1-14.7l95.5-32.5
	c12.9-4.4,26.1-8.8,39.7-8.4c6.4,0.2,14.4,3.6,13.7,9.9c-0.4,3.2-3,5.7-5.8,7.5c-13.4,8.8-30.4,8.9-46.3,10.6
	c-19.2,2.1-38,6.9-56.7,11.7c-23.9,6.1-48,12.4-69.5,24.5c-11.9,6.7-23.3,15.8-28.9,28.2c-4.4,9.8-5,21.1-3.1,31.7
	c2.3,13,8.7,25.7,19.8,32.9c13,8.4,29.9,7.6,45.2,4.7c54.6-10.4,105.8-44.1,161.2-38.4c19.4,2,37.9,8.7,56.8,13.1
	c14.6,3.4,29.5,5.3,44.5,5.6c5.3,0.1,10.8,0,15.5-2.3C6582.8,6703.9,6564.4,6674.6,6553.1,6660.2z"/>
<path d="M7070.9,6590.8c4.6,15.3,4.1,33.2-10.6,42.2c-7.8,4.8-17.1,6.2-26.2,6.7c-21.4,1.2-42.7-2.3-63.7-5.9
	c-5.3-0.9-10.6-1.8-15.3-4.3c-9.9-5.3-15.3-17.2-14.1-28.3c1.3-11.1,8.5-21.1,18-27c8.1-5,17.5-7.2,26.7-9.9
	c9.8-2.8,19.5-6.2,29.6-7.9c10.1-1.7,20.8-1.5,30.1,2.7c9.4,4.2,16.9,12.2,21.4,21.5C7068.5,6583.9,7069.8,6587.3,7070.9,6590.8z"/>
<path d="M6918.8,6694.4c4.4-11.5,9.3-22.9,14.2-34.1c2.5-5.7,5.2-11.6,10.1-15.4c6.6-5.1,15.7-5.2,24.1-4.8
	c14.6,0.8,29.1,2.6,43.4,5.4c4.1,0.8,8.7,2.1,10.4,5.9c2.2,4.9-2,10.4-6.5,13.4c-14.6,9.8-34.2,9.5-49.2,18.9
	c-4.5,2.8-8.8,9.1-5.1,13c2.3,2.4,6.3,2,9.5,1.1c13.1-3.8,24-12.7,35.5-20.1c35.9-23.1,80-31.5,122.5-28.3
	c11.5,0.9,23.3,2.7,32.8,9.1c18.1,12.1,16.1,36.9,8,54.6c-8.5,18.5-25.6,33.2-45.7,37.4c-15.2,3.1-30.9,0.7-46.3,0.8
	c-33.4,0.3-65.8,12.5-94.2,30.1c-11.8,7.3-23.4,15.7-36.9,18.9c-13.5,3.2-29.8-0.4-36.8-12.4c-3-5.2-3.9-11.3-4.3-17.3
	C6902.8,6744.4,6909.5,6719,6918.8,6694.4z"/>
<path d="M7192.3,6585.3c22.1,11.7,45.8,21,65.7,36.2c17.1,13,31.9,31.9,34.7,53.7c2.8,21.7-4.5,46.5-19.7,62.4
	c-13.5,14-32.3,21.8-51.7,21.5c-15-0.3-31.4-7-36.9-20.9c-4.9-12.4,0.1-26.2,2.5-39.3c4.6-24.5-0.2-50.3-10.9-72.9
	c-10.6-22.6-26.8-42.2-45.1-59.1c-10-9.2-21.9-18.2-35.5-18c-1.3,0-2.7,0.2-3.6,1.2c-1.5,1.8,0.1,4.4,1.7,6
	c16.9,17.4,40.5,27.7,55.4,46.8c4.4,5.6,8.1,12.6,6.7,19.7c-2.3,11.6-16.3,16.3-28.1,16.6c-12.4,0.3-24.8-2-36.4-6.6
	c-2.6-1-5.2-2.3-6.9-4.5c-3.3-4.3-2-10.4-1.3-15.8c3.9-33.6-26.5-63.2-25.5-96.9c0.8-26.8,22.5-49.8,47.8-58.6
	c25.3-8.8,53.3-5.6,79.1,1.7c16.8,4.8,35,13.1,40.7,29.7c3.6,10.4,1.2,22.2-3.7,32.1c-8.7,17.4-26,30.7-45.3,32.4
	c-19.3,1.6-39.7-9.8-46.3-28.1c-0.7-2.1-1.3-4.3-0.7-6.4c0.7-2.4,2.7-4.1,4.4-5.8c2.7-2.7,5.1-5.9,5.7-9.7c0.6-3.8-0.9-8.1-4.4-9.7
	c-3.7-1.8-8.4,0-11,3.2c-2.6,3.2-3.6,7.4-4.2,11.4c-1,7-1.2,14.4,1.4,21c3,7.8,9.4,13.8,15.8,19.2c17.1,14.4,35.6,26.9,55.3,37.4
	C7192.1,6585.2,7192.2,6585.2,7192.3,6585.3z"/>
<path d="M6675.1,6556.7c-17.3-19.6-41.8-35.1-67.7-32.5c-20.3,2.1-37.9,14.8-52.2,29.3c-6.8,6.8-13.1,14.3-17.2,22.9
	c-4.1,8.7-5.8,18.8-3.1,28c3,10,10.7,17.8,16.8,26.2c12.4,17.1,18.7,37.7,27.2,57c8.5,19.3,20.3,38.6,39.2,48
	c14.2,7,30.9,7.6,46.4,4.4c9.1-1.9,18.2-5,25.4-10.9c9.6-7.8,15-19.7,17.9-31.7c9.6-40,5-81.2-15.8-117c-4.5-7.8-9.7-15.2-15.5-22
	C6676.1,6557.9,6675.6,6557.3,6675.1,6556.7z M6619,6670.4c-2.1-1.6-4-3.4-5.6-5.4c-5.6-6.4-11.4-13-14.3-20.9
	c-3.7-10-2.5-21.3,1.6-31.2c2.6-6.4,6.6-12.4,12.3-16.2c7.2-4.6,16.6-5.2,24.6-2.1c8,3.1,14.4,9.5,18.3,17.1
	c7.2,14,7.2,33.3-0.1,47.3c-3.6,6.9-9.8,12.7-17.4,14.3c-4.1,0.9-8.3,0.5-12.4-0.3c-2-0.3-3.9-1-5.7-1.9
	C6619.8,6671,6619.4,6670.7,6619,6670.4L6619,6670.4z"/>
<path d="M6885.8,6610.2c0.3-0.3,0.5-0.6,0.7-0.9c2.4-3.7-1.5-8.2-5.1-10.8c-48.5-34.5-111.8-41.9-161.6-74.5
	c-10.4-6.8-21.2-18.1-17.3-29.8c1.9-5.7,7-9.7,12.1-12.8c18.8-11.2,41.4-13.8,63-17.2c49.7-7.7,98.4-20.5,146.3-35.9
	c19.1-6.1,39-12.7,58.7-9.4c20.1,3.4,37.6,17.2,47.6,34.9c17.5,30.9,19.2,88.7-25.1,96.8c-18.3,3.3-37-3.1-53.4-11.7
	c-16.4-8.7-31.6-19.7-48.8-26.7c-18.4-7.5-38.4-10.1-58.1-7.6c-9.2,1.2-20.3,5.9-20.2,15.2c0.1,7.3,7.3,12.2,13.9,15.5
	c23,11.4,48.2,19.2,68.4,35.1c20.2,15.9,34.3,43.7,24.5,67.4c-5,12.2-15.4,21.3-25.7,29.5c-39.8,31.6-88.5,58.1-139,52.4
	c-13.8-1.5-28.2-6.1-36.9-16.9c-5.9-7.4-8.5-16.8-9.9-26.1c-3.2-20.9-1.2-42.2,5.6-62.1c2.7-7.7,6.2-15.5,12.3-21
	c10.5-9.5,26.2-10.5,40.3-8.7c34,4.2,65.3,20.7,99.1,26.5C6880.2,6611.9,6883.8,6612.1,6885.8,6610.2z"/>
<g>
	<path d="M291.7,127.5C276.2,110,254.2,96.1,231,98.4c-18.2,1.8-34,13.3-46.8,26.3c-6.1,6.1-11.7,12.8-15.4,20.6s-5.2,16.9-2.7,25.1
		c2.7,9,9.6,15.9,15.1,23.5c11.1,15.3,16.7,33.8,24.3,51.1s18.2,34.6,35.2,43c12.7,6.3,27.7,6.8,41.6,4c8.2-1.7,16.3-4.5,22.8-9.8
		c8.6-7,13.5-17.7,16-28.4c8.6-35.9,4.5-72.7-14.1-104.9c-4-7-8.7-13.6-13.9-19.8C292.6,128.6,292.1,128.1,291.7,127.5z
		 M241.4,229.5c-1.9-1.4-3.6-3-5-4.8c-5-5.7-10.2-11.6-12.8-18.8c-3.3-9-2.2-19.1,1.4-27.9c2.3-5.7,5.9-11.1,11-14.5
		c6.4-4.2,14.9-4.6,22-1.8c7.1,2.8,12.9,8.5,16.4,15.3c6.5,12.5,6.4,29.9-0.1,42.4c-3.2,6.2-8.8,11.4-15.6,12.8
		c-3.7,0.6-7.5,0.5-11.1-0.3c-1.8-0.3-3.5-0.9-5.1-1.7C242.1,229.9,241.7,229.7,241.4,229.5z"/>
	<path d="M453,423.4c-1.7-2.1-3.2-4-4.4-5.3c-15.6-17.4-37.2-29.7-60.4-33c-26-3.7-52.4,2.8-76.9,12.4
		c-24.5,9.5-47.7,22.1-72.3,31.1c-3.7,1.3-7.6,2.6-11.5,2c-3.9-0.6-7.7-3.7-7.7-7.7c0.1-2,0.8-3.9,2-5.5c9-14.2,27-19.1,43.4-22.6
		c38.1-8.1,76.7-14.3,113.8-26.3c11.8-3.8,23.6-8.4,33.4-16.1s17.3-19,17.9-31.4c1-19.3-15.5-36.3-34.1-41.5s-38.6-1.2-56.9,5
		s-36.1,14.4-55.1,17.8c-19,3.4-40.3,1.1-54.8-11.7c-18.4-16.2-23.4-46.5-45.9-56c-16.7-7.1-36.1,0.8-50.8,11.6
		c-31.6,23.3-52.1,60.9-54.5,100.1c-0.8,12.9,0.8,27.1,10,36.2c9.4,9.2,23.9,10.4,37,9.1c19.6-2,38.5-8.3,57.1-14.7l95.5-32.5
		c12.9-4.4,26.1-8.8,39.7-8.4c6.4,0.2,14.4,3.6,13.7,9.9c-0.4,3.2-3,5.7-5.8,7.5c-13.4,8.8-30.4,8.9-46.3,10.6
		c-19.2,2.1-38,6.9-56.7,11.7c-23.9,6.1-48,12.4-69.5,24.5c-11.9,6.7-23.3,15.8-28.9,28.2c-4.4,9.8-5,21.1-3.1,31.7
		c2.3,13,8.7,25.7,19.8,32.9c13.1,8.4,29.9,7.6,45.2,4.7c54.6-10.4,105.8-44.1,161.2-38.4c19.4,2,37.9,8.7,56.8,13.1
		c14.6,3.4,29.5,5.3,44.5,5.6c5.3,0.1,10.8,0,15.5-2.3C482.6,467.1,464.3,437.7,453,423.4z"/>
	<path d="M450.4,211.8c22.1,11.7,45.8,21,65.7,36.2c17.1,13,31.9,31.9,34.7,53.7c2.8,21.7-4.5,46.5-19.7,62.4
		c-13.5,14-32.3,21.8-51.7,21.5c-15-0.3-31.4-7-36.9-20.9c-4.9-12.4,0.1-26.2,2.5-39.3c4.6-24.5-0.2-50.3-10.9-72.9
		c-10.6-22.6-26.8-42.2-45.1-59.1c-10-9.2-21.9-18.2-35.5-18c-1.3,0-2.7,0.2-3.6,1.2c-1.5,1.8,0.1,4.4,1.7,6
		c16.9,17.4,40.5,27.7,55.4,46.8c4.4,5.6,8.1,12.6,6.7,19.7c-2.3,11.6-16.3,16.3-28.1,16.6c-12.4,0.3-24.8-2-36.4-6.6
		c-2.6-1-5.2-2.3-6.9-4.5c-3.3-4.3-2-10.4-1.3-15.8c3.9-33.6-26.5-63.2-25.5-96.9c0.8-26.8,22.5-49.8,47.8-58.6s53.3-5.6,79.1,1.7
		c16.8,4.8,35,13.1,40.7,29.7c3.6,10.4,1.2,22.2-3.7,32.1c-8.7,17.4-26,30.7-45.3,32.4c-19.3,1.6-39.7-9.8-46.3-28.1
		c-0.7-2.1-1.3-4.3-0.7-6.4c0.7-2.4,2.7-4.1,4.4-5.8c2.7-2.7,5.1-5.9,5.7-9.7c0.6-3.8-0.9-8.1-4.4-9.7c-3.7-1.8-8.4,0-11,3.2
		s-3.6,7.4-4.2,11.4c-1,7-1.2,14.4,1.4,21c3,7.8,9.4,13.8,15.8,19.2c17.1,14.4,35.6,26.9,55.3,37.4
		C450.2,211.7,450.3,211.8,450.4,211.8z"/>
</g>
<path d="M5119.3,6660.2c-1.7-2.1-3.2-4-4.4-5.3c-15.6-17.4-37.2-29.7-60.4-33c-26-3.7-52.4,2.8-76.9,12.4s-47.7,22.1-72.3,31.1
	c-3.7,1.4-7.6,2.6-11.5,2c-3.9-0.6-7.7-3.7-7.7-7.7c0.1-2,0.8-3.9,2-5.5c9-14.2,27-19.1,43.4-22.6c38.1-8.1,76.7-14.3,113.8-26.3
	c11.8-3.8,23.6-8.4,33.4-16.1c9.8-7.7,17.3-19,17.9-31.4c1-19.3-15.5-36.3-34.1-41.5c-18.6-5.2-38.6-1.2-56.9,5
	s-36.1,14.4-55.1,17.8c-19,3.4-40.3,1.1-54.8-11.7c-18.4-16.2-23.4-46.5-45.9-56c-16.7-7.1-36.1,0.8-50.8,11.6
	c-31.6,23.3-52.1,60.9-54.5,100.1c-0.8,12.9,0.8,27.1,10,36.2c9.4,9.2,23.9,10.4,37,9.1c19.6-2,38.5-8.3,57.1-14.7l95.5-32.5
	c12.9-4.4,26.1-8.8,39.7-8.4c6.4,0.2,14.4,3.6,13.7,9.9c-0.4,3.2-3,5.7-5.8,7.5c-13.4,8.8-30.4,8.9-46.3,10.6
	c-19.2,2.1-38,6.9-56.7,11.7c-23.9,6.1-48,12.4-69.5,24.5c-11.9,6.7-23.3,15.8-28.9,28.2c-4.4,9.8-5,21.1-3.1,31.7
	c2.3,13,8.7,25.7,19.8,32.9c13,8.4,29.9,7.6,45.2,4.7c54.6-10.4,105.8-44.1,161.2-38.4c19.4,2,37.9,8.7,56.8,13.1
	c14.6,3.4,29.5,5.3,44.5,5.6c5.3,0.1,10.8,0,15.5-2.3C5149,6703.9,5130.6,6674.6,5119.3,6660.2z"/>
<path d="M5637.1,6590.8c4.6,15.3,4.1,33.2-10.6,42.2c-7.8,4.8-17.1,6.2-26.2,6.7c-21.4,1.2-42.7-2.3-63.7-5.9
	c-5.3-0.9-10.6-1.8-15.3-4.3c-9.9-5.3-15.3-17.2-14.1-28.3c1.2-11.1,8.5-21.1,18-27c8.1-5,17.5-7.2,26.7-9.9
	c9.8-2.8,19.5-6.2,29.6-7.9s20.8-1.5,30.1,2.7c9.4,4.2,16.9,12.2,21.4,21.5C5634.7,6583.9,5636,6587.3,5637.1,6590.8z"/>
<path d="M5485,6694.4c4.4-11.5,9.3-22.9,14.2-34.1c2.5-5.7,5.2-11.6,10.1-15.4c6.6-5.1,15.7-5.2,24.1-4.8
	c14.6,0.8,29.1,2.6,43.4,5.4c4.1,0.8,8.7,2.1,10.4,5.9c2.2,4.9-2,10.4-6.5,13.4c-14.6,9.8-34.2,9.5-49.2,18.9
	c-4.5,2.8-8.8,9.1-5.1,13c2.3,2.4,6.3,2,9.5,1.1c13.1-3.8,24-12.7,35.5-20.1c35.9-23.1,80-31.5,122.5-28.3
	c11.5,0.9,23.3,2.7,32.8,9.1c18.1,12.1,16.1,36.9,8,54.6c-8.5,18.5-25.6,33.2-45.7,37.4c-15.2,3.1-30.9,0.7-46.3,0.8
	c-33.4,0.3-65.8,12.5-94.2,30.1c-11.8,7.3-23.4,15.7-36.9,18.9s-29.8-0.4-36.8-12.4c-3-5.2-3.9-11.3-4.3-17.3
	C5469,6744.4,5475.7,6719,5485,6694.4z"/>
<path d="M5758.5,6585.3c22.1,11.7,45.8,21,65.7,36.2c17.1,13,31.9,31.9,34.7,53.7c2.8,21.7-4.5,46.5-19.7,62.4
	c-13.5,14-32.3,21.8-51.7,21.5c-15-0.3-31.4-7-36.9-20.9c-4.9-12.4,0.1-26.2,2.5-39.3c4.6-24.5-0.2-50.3-10.9-72.9
	c-10.6-22.6-26.8-42.2-45.1-59.1c-10-9.2-21.9-18.2-35.5-18c-1.3,0-2.7,0.2-3.6,1.2c-1.5,1.8,0.1,4.4,1.7,6
	c16.9,17.4,40.5,27.7,55.4,46.8c4.4,5.6,8.1,12.6,6.7,19.7c-2.3,11.6-16.3,16.3-28.1,16.6c-12.4,0.3-24.8-2-36.4-6.6
	c-2.6-1-5.2-2.3-6.9-4.5c-3.3-4.3-2-10.4-1.3-15.8c3.9-33.6-26.5-63.2-25.5-96.9c0.8-26.8,22.5-49.8,47.8-58.6
	c25.3-8.8,53.3-5.6,79.1,1.7c16.8,4.8,35,13.1,40.7,29.7c3.6,10.4,1.2,22.2-3.7,32.1c-8.7,17.4-26,30.7-45.3,32.4
	c-19.3,1.6-39.7-9.8-46.3-28.1c-0.7-2.1-1.3-4.3-0.7-6.4c0.7-2.4,2.7-4.1,4.4-5.8c2.7-2.7,5.1-5.9,5.7-9.7c0.6-3.8-0.9-8.1-4.4-9.7
	c-3.7-1.8-8.4,0-11,3.2c-2.6,3.2-3.6,7.4-4.2,11.4c-1,7-1.2,14.4,1.4,21c3,7.8,9.4,13.8,15.8,19.2c17.1,14.4,35.6,26.9,55.3,37.4
	C5758.3,6585.2,5758.4,6585.2,5758.5,6585.3z"/>
<path d="M5241.3,6556.7c-17.3-19.6-41.8-35.1-67.7-32.5c-20.3,2.1-37.9,14.8-52.2,29.3c-6.8,6.8-13.1,14.3-17.2,22.9
	c-4.1,8.7-5.8,18.8-3.1,28c3,10,10.7,17.8,16.8,26.2c12.4,17.1,18.7,37.7,27.2,57c8.5,19.3,20.3,38.6,39.2,48
	c14.2,7,30.9,7.6,46.4,4.4c9.1-1.9,18.2-5,25.4-10.9c9.6-7.8,15-19.7,17.9-31.7c9.6-40,5-81.2-15.8-117c-4.5-7.8-9.7-15.2-15.5-22
	C5242.3,6557.9,5241.8,6557.3,5241.3,6556.7z M5185.2,6670.4c-2.1-1.6-4-3.4-5.6-5.4c-5.6-6.4-11.4-13-14.3-20.9
	c-3.7-10-2.5-21.3,1.6-31.2c2.6-6.4,6.6-12.4,12.3-16.2c7.2-4.6,16.6-5.2,24.6-2.1c8,3.1,14.4,9.5,18.3,17.1
	c7.2,14,7.2,33.3-0.1,47.3c-3.6,6.9-9.8,12.7-17.4,14.3c-4.1,0.9-8.3,0.5-12.4-0.3c-2-0.3-3.9-1-5.7-1.9
	C5186,6671,5185.6,6670.7,5185.2,6670.4L5185.2,6670.4z"/>
<path d="M5452,6610.2c0.3-0.3,0.5-0.6,0.7-0.9c2.4-3.7-1.5-8.2-5.1-10.8c-48.5-34.5-111.8-41.9-161.6-74.5
	c-10.4-6.8-21.2-18.1-17.3-29.8c1.9-5.7,7-9.7,12.1-12.8c18.8-11.2,41.4-13.8,63-17.2c49.7-7.7,98.4-20.5,146.3-35.9
	c19.1-6.1,39-12.7,58.7-9.4c20.1,3.4,37.6,17.2,47.6,34.9c17.5,30.9,19.2,88.7-25.1,96.8c-18.3,3.3-37-3.1-53.4-11.7
	c-16.4-8.7-31.6-19.7-48.8-26.7c-18.4-7.5-38.4-10.1-58.1-7.6c-9.2,1.2-20.3,5.9-20.2,15.2c0.1,7.3,7.3,12.2,13.9,15.5
	c23,11.4,48.2,19.2,68.4,35.1c20.2,15.9,34.3,43.7,24.5,67.4c-5,12.2-15.4,21.3-25.7,29.5c-39.8,31.6-88.5,58.1-139,52.4
	c-13.8-1.5-28.2-6.1-36.9-16.9c-5.9-7.4-8.5-16.8-9.9-26.1c-3.2-20.9-1.2-42.2,5.6-62.1c2.7-7.7,6.2-15.5,12.3-21
	c10.5-9.5,26.2-10.5,40.3-8.7c34,4.2,65.3,20.7,99.1,26.5C5446.4,6611.9,5449.9,6612.1,5452,6610.2z"/>
<rect x="314.7" y="7365.5" class="st10" width="1343.6" height="1343.6"/>
<path class="st5" d="M803.9,8087.8c-1.7-2.1-3.2-4-4.4-5.3c-15.6-17.4-37.2-29.7-60.4-33c-26-3.7-52.4,2.8-76.9,12.4
	c-24.5,9.5-47.7,22.1-72.3,31.1c-3.7,1.4-7.6,2.6-11.5,2c-3.9-0.6-7.7-3.7-7.7-7.7c0.1-2,0.8-3.9,2-5.5c9-14.2,27-19.1,43.4-22.6
	c38.1-8.1,76.7-14.3,113.8-26.3c11.8-3.8,23.6-8.4,33.4-16.1c9.8-7.7,17.3-19,17.9-31.4c1-19.3-15.5-36.3-34.1-41.5
	c-18.6-5.2-38.6-1.2-56.9,5s-36.1,14.4-55.1,17.8c-19,3.4-40.3,1.1-54.8-11.7c-18.4-16.2-23.4-46.5-45.9-56
	c-16.7-7.1-36.1,0.8-50.8,11.6c-31.6,23.3-52.1,60.9-54.5,100.1c-0.8,12.9,0.8,27.1,10,36.2c9.4,9.2,23.9,10.4,37,9.1
	c19.6-2,38.5-8.3,57.1-14.7l95.5-32.5c12.9-4.4,26.1-8.8,39.7-8.4c6.4,0.2,14.4,3.6,13.7,9.9c-0.4,3.2-3,5.7-5.8,7.5
	c-13.4,8.8-30.4,8.9-46.3,10.6c-19.2,2.1-38,6.9-56.7,11.7c-23.9,6.1-48,12.4-69.5,24.5c-11.9,6.7-23.3,15.8-28.9,28.2
	c-4.4,9.8-5,21.1-3.1,31.7c2.3,13,8.7,25.7,19.8,32.9c13.1,8.4,29.9,7.6,45.2,4.7c54.6-10.4,105.8-44.1,161.2-38.4
	c19.4,2,37.9,8.7,56.8,13.1c14.6,3.4,29.5,5.3,44.5,5.6c5.3,0.1,10.8,0,15.5-2.3C833.6,8131.5,815.2,8102.1,803.9,8087.8z"/>
<path class="st5" d="M1321.7,8018.4c4.6,15.3,4.1,33.2-10.6,42.2c-7.8,4.8-17.1,6.2-26.2,6.7c-21.4,1.2-42.7-2.3-63.7-5.9
	c-5.3-0.9-10.6-1.8-15.3-4.3c-9.9-5.3-15.3-17.2-14.1-28.3s8.5-21.1,18-27c8.1-5,17.5-7.2,26.7-9.9c9.8-2.8,19.5-6.2,29.6-7.9
	c10.1-1.7,20.8-1.5,30.1,2.7c9.4,4.2,16.9,12.2,21.4,21.5C1319.2,8011.4,1320.6,8014.9,1321.7,8018.4z"/>
<path class="st5" d="M1169.6,8122c4.4-11.5,9.3-22.9,14.2-34.1c2.5-5.7,5.2-11.6,10.1-15.4c6.6-5.1,15.7-5.2,24.1-4.8
	c14.6,0.8,29.1,2.6,43.4,5.4c4.1,0.8,8.7,2.1,10.4,5.9c2.2,4.9-2,10.4-6.5,13.4c-14.6,9.8-34.2,9.5-49.2,18.9
	c-4.5,2.8-8.8,9.1-5.1,13c2.3,2.4,6.3,2,9.5,1.1c13.1-3.8,24-12.7,35.5-20.1c35.9-23.1,80-31.5,122.5-28.3
	c11.5,0.9,23.3,2.7,32.8,9.1c18.1,12.1,16.1,36.9,8,54.6c-8.5,18.5-25.6,33.2-45.7,37.4c-15.2,3.1-30.9,0.7-46.3,0.8
	c-33.4,0.3-65.8,12.5-94.2,30.1c-11.8,7.3-23.4,15.7-36.9,18.9c-13.5,3.2-29.8-0.4-36.8-12.4c-3-5.2-3.9-11.3-4.3-17.3
	C1153.5,8172,1160.3,8146.6,1169.6,8122z"/>
<path class="st5" d="M1443.1,8012.9c22.1,11.7,45.8,21,65.7,36.2c17.1,13,31.9,31.9,34.7,53.7c2.8,21.7-4.5,46.5-19.7,62.4
	c-13.5,14-32.3,21.8-51.7,21.5c-15-0.3-31.4-7-36.9-20.9c-4.9-12.4,0.1-26.2,2.5-39.3c4.6-24.5-0.2-50.3-10.9-72.9
	c-10.6-22.6-26.8-42.2-45.1-59.1c-10-9.2-21.9-18.2-35.5-18c-1.3,0-2.7,0.2-3.6,1.2c-1.5,1.8,0.1,4.4,1.7,6
	c16.9,17.4,40.5,27.7,55.4,46.8c4.4,5.6,8.1,12.6,6.7,19.7c-2.3,11.6-16.3,16.3-28.1,16.6c-12.4,0.3-24.8-2-36.4-6.6
	c-2.6-1-5.2-2.3-6.9-4.5c-3.3-4.3-2-10.4-1.3-15.8c3.9-33.6-26.5-63.2-25.5-96.9c0.8-26.8,22.5-49.8,47.8-58.6s53.3-5.6,79.1,1.7
	c16.8,4.8,35,13.1,40.7,29.7c3.6,10.4,1.2,22.2-3.7,32.1c-8.7,17.4-26,30.7-45.3,32.4c-19.3,1.6-39.7-9.8-46.3-28.1
	c-0.7-2.1-1.3-4.3-0.7-6.4c0.7-2.4,2.7-4.1,4.4-5.8c2.7-2.7,5.1-5.9,5.7-9.7c0.6-3.8-0.9-8.1-4.4-9.7c-3.7-1.8-8.4,0-11,3.2
	c-2.6,3.2-3.6,7.4-4.2,11.4c-1,7-1.2,14.4,1.4,21c3,7.8,9.4,13.8,15.8,19.2c17.1,14.4,35.6,26.9,55.3,37.4
	C1442.9,8012.8,1443,8012.8,1443.1,8012.9z"/>
<path class="st5" d="M925.9,7984.3c-17.3-19.6-41.8-35.1-67.7-32.5c-20.3,2.1-37.9,14.8-52.2,29.3c-6.8,6.8-13.1,14.3-17.2,22.9
	c-4.1,8.7-5.8,18.8-3.1,28c3,10,10.7,17.8,16.8,26.2c12.4,17.1,18.7,37.7,27.2,57c8.5,19.3,20.3,38.6,39.2,48
	c14.2,7,30.9,7.6,46.4,4.4c9.1-1.9,18.2-5,25.4-10.9c9.6-7.8,15-19.7,17.9-31.7c9.6-40,5-81.2-15.8-117c-4.5-7.8-9.7-15.2-15.5-22
	C926.9,7985.5,926.4,7984.9,925.9,7984.3z M869.7,8098c-2.1-1.6-4-3.4-5.6-5.4c-5.6-6.4-11.4-13-14.3-20.9
	c-3.7-10-2.5-21.3,1.6-31.2c2.6-6.4,6.6-12.4,12.3-16.2c7.2-4.6,16.6-5.2,24.6-2.1c8,3.1,14.4,9.5,18.3,17.1
	c7.2,14,7.2,33.3-0.1,47.3c-3.6,6.9-9.8,12.7-17.4,14.3c-4.1,0.9-8.3,0.5-12.4-0.3c-2-0.3-3.9-1-5.7-1.9
	C870.6,8098.5,870.2,8098.3,869.7,8098L869.7,8098z"/>
<path class="st5" d="M1136.6,8037.8c0.3-0.3,0.5-0.6,0.7-0.9c2.4-3.7-1.5-8.2-5.1-10.8c-48.5-34.5-111.8-41.9-161.6-74.5
	c-10.4-6.8-21.2-18.1-17.3-29.8c1.9-5.7,7-9.7,12.1-12.8c18.8-11.2,41.4-13.8,63-17.2c49.7-7.7,98.4-20.5,146.3-35.9
	c19.1-6.1,39-12.7,58.7-9.4c20.1,3.4,37.6,17.2,47.6,34.9c17.5,30.9,19.2,88.7-25.1,96.8c-18.3,3.3-37-3.1-53.4-11.7
	c-16.4-8.7-31.6-19.7-48.8-26.7c-18.4-7.5-38.4-10.1-58.1-7.6c-9.2,1.2-20.3,5.9-20.2,15.2c0.1,7.3,7.3,12.2,13.9,15.5
	c23,11.4,48.2,19.2,68.4,35.1c20.2,15.9,34.3,43.7,24.5,67.4c-5,12.2-15.4,21.3-25.7,29.5c-39.8,31.6-88.5,58.1-139,52.4
	c-13.8-1.5-28.2-6.1-36.9-16.9c-5.9-7.4-8.5-16.8-9.9-26.1c-3.2-20.9-1.2-42.2,5.6-62.1c2.7-7.7,6.2-15.5,12.3-21
	c10.5-9.5,26.2-10.5,40.3-8.7c34,4.2,65.3,20.7,99.1,26.5C1131,8039.5,1134.5,8039.7,1136.6,8037.8z"/>
<rect x="1756.3" y="7365.5" class="st9" width="1343.6" height="1343.6"/>
<path class="st8" d="M2245.5,8087.8c-1.7-2.1-3.2-4-4.4-5.3c-15.6-17.4-37.2-29.7-60.4-33c-26-3.7-52.4,2.8-76.9,12.4
	s-47.7,22.1-72.3,31.1c-3.7,1.4-7.6,2.6-11.5,2c-3.9-0.6-7.7-3.7-7.7-7.7c0.1-2,0.8-3.9,2-5.5c9-14.2,27-19.1,43.4-22.6
	c38.1-8.1,76.7-14.3,113.8-26.3c11.8-3.8,23.6-8.4,33.4-16.1c9.8-7.7,17.3-19,17.9-31.4c1-19.3-15.5-36.3-34.1-41.5
	c-18.6-5.2-38.6-1.2-56.9,5c-18.3,6.2-36.1,14.4-55.1,17.8c-19,3.4-40.3,1.1-54.8-11.7c-18.4-16.2-23.4-46.5-45.9-56
	c-16.7-7.1-36.1,0.8-50.8,11.6c-31.6,23.3-52.1,60.9-54.5,100.1c-0.8,12.9,0.8,27.1,10,36.2c9.4,9.2,23.9,10.4,37,9.1
	c19.6-2,38.5-8.3,57.1-14.7l95.5-32.5c12.9-4.4,26.1-8.8,39.7-8.4c6.4,0.2,14.4,3.6,13.7,9.9c-0.4,3.2-3,5.7-5.8,7.5
	c-13.4,8.8-30.4,8.9-46.3,10.6c-19.2,2.1-38,6.9-56.7,11.7c-23.9,6.1-48,12.4-69.5,24.5c-11.9,6.7-23.3,15.8-28.9,28.2
	c-4.4,9.8-5,21.1-3.1,31.7c2.3,13,8.7,25.7,19.8,32.9c13.1,8.4,29.9,7.6,45.2,4.7c54.6-10.4,105.8-44.1,161.2-38.4
	c19.4,2,37.9,8.7,56.8,13.1c14.6,3.4,29.5,5.3,44.5,5.6c5.3,0.1,10.8,0,15.5-2.3C2275.2,8131.5,2256.8,8102.1,2245.5,8087.8z"/>
<path class="st8" d="M2763.3,8018.4c4.6,15.3,4.1,33.2-10.6,42.2c-7.8,4.8-17.1,6.2-26.2,6.7c-21.4,1.2-42.7-2.3-63.7-5.9
	c-5.3-0.9-10.6-1.8-15.3-4.3c-9.9-5.3-15.3-17.2-14.1-28.3c1.2-11.1,8.5-21.1,18-27c8.1-5,17.5-7.2,26.7-9.9
	c9.8-2.8,19.5-6.2,29.6-7.9c10.1-1.7,20.8-1.5,30.1,2.7c9.4,4.2,16.9,12.2,21.4,21.5C2760.8,8011.4,2762.2,8014.9,2763.3,8018.4z"/>
<path class="st8" d="M2611.2,8122c4.4-11.5,9.3-22.9,14.2-34.1c2.5-5.7,5.2-11.6,10.1-15.4c6.6-5.1,15.7-5.2,24.1-4.8
	c14.6,0.8,29.1,2.6,43.4,5.4c4.1,0.8,8.7,2.1,10.4,5.9c2.2,4.9-2,10.4-6.5,13.4c-14.6,9.8-34.2,9.5-49.2,18.9
	c-4.5,2.8-8.8,9.1-5.1,13c2.3,2.4,6.3,2,9.5,1.1c13.1-3.8,24-12.7,35.5-20.1c35.9-23.1,80-31.5,122.5-28.3
	c11.5,0.9,23.3,2.7,32.8,9.1c18.1,12.1,16.1,36.9,8,54.6c-8.5,18.5-25.6,33.2-45.7,37.4c-15.2,3.1-30.9,0.7-46.3,0.8
	c-33.4,0.3-65.8,12.5-94.2,30.1c-11.8,7.3-23.4,15.7-36.9,18.9c-13.5,3.2-29.8-0.4-36.8-12.4c-3-5.2-3.9-11.3-4.3-17.3
	C2595.1,8172,2601.9,8146.6,2611.2,8122z"/>
<path class="st8" d="M2884.6,8012.9c22.1,11.7,45.8,21,65.7,36.2c17.1,13,31.9,31.9,34.7,53.7c2.8,21.7-4.5,46.5-19.7,62.4
	c-13.5,14-32.3,21.8-51.7,21.5c-15-0.3-31.4-7-36.9-20.9c-4.9-12.4,0.1-26.2,2.5-39.3c4.6-24.5-0.2-50.3-10.9-72.9
	s-26.8-42.2-45.1-59.1c-10-9.2-21.9-18.2-35.5-18c-1.3,0-2.7,0.2-3.6,1.2c-1.5,1.8,0.1,4.4,1.7,6c16.9,17.4,40.5,27.7,55.4,46.8
	c4.4,5.6,8.1,12.6,6.7,19.7c-2.3,11.6-16.3,16.3-28.1,16.6c-12.4,0.3-24.8-2-36.4-6.6c-2.6-1-5.2-2.3-6.9-4.5
	c-3.3-4.3-2-10.4-1.3-15.8c3.9-33.6-26.5-63.2-25.5-96.9c0.8-26.8,22.5-49.8,47.8-58.6s53.3-5.6,79.1,1.7
	c16.8,4.8,35,13.1,40.7,29.7c3.6,10.4,1.2,22.2-3.7,32.1c-8.7,17.4-26,30.7-45.3,32.4c-19.3,1.6-39.7-9.8-46.3-28.1
	c-0.7-2.1-1.3-4.3-0.7-6.4c0.7-2.4,2.7-4.1,4.4-5.8c2.7-2.7,5.1-5.9,5.7-9.7s-0.9-8.1-4.4-9.7c-3.7-1.8-8.4,0-11,3.2
	s-3.6,7.4-4.2,11.4c-1,7-1.2,14.4,1.4,21c3,7.8,9.4,13.8,15.8,19.2c17.1,14.4,35.6,26.9,55.3,37.4
	C2884.4,8012.8,2884.5,8012.8,2884.6,8012.9z"/>
<path class="st8" d="M2367.5,7984.3c-17.3-19.6-41.8-35.1-67.7-32.5c-20.3,2.1-37.9,14.8-52.2,29.3c-6.8,6.8-13.1,14.3-17.2,22.9
	c-4.1,8.7-5.8,18.8-3.1,28c3,10,10.7,17.8,16.8,26.2c12.4,17.1,18.7,37.7,27.2,57c8.5,19.3,20.3,38.6,39.2,48
	c14.2,7,30.9,7.6,46.4,4.4c9.1-1.9,18.2-5,25.4-10.9c9.6-7.8,15-19.7,17.9-31.7c9.6-40,5-81.2-15.8-117c-4.5-7.8-9.7-15.2-15.5-22
	C2368.5,7985.5,2368,7984.9,2367.5,7984.3z M2311.3,8098c-2.1-1.6-4-3.4-5.6-5.4c-5.6-6.4-11.4-13-14.3-20.9
	c-3.7-10-2.5-21.3,1.6-31.2c2.6-6.4,6.6-12.4,12.3-16.2c7.2-4.6,16.6-5.2,24.6-2.1c8,3.1,14.4,9.5,18.3,17.1
	c7.2,14,7.2,33.3-0.1,47.3c-3.6,6.9-9.8,12.7-17.4,14.3c-4.1,0.9-8.3,0.5-12.4-0.3c-2-0.3-3.9-1-5.7-1.9
	C2312.2,8098.5,2311.7,8098.3,2311.3,8098L2311.3,8098z"/>
<path class="st8" d="M2578.2,8037.8c0.3-0.3,0.5-0.6,0.7-0.9c2.4-3.7-1.5-8.2-5.1-10.8c-48.5-34.5-111.8-41.9-161.6-74.5
	c-10.4-6.8-21.2-18.1-17.3-29.8c1.9-5.7,7-9.7,12.1-12.8c18.8-11.2,41.4-13.8,63-17.2c49.7-7.7,98.4-20.5,146.3-35.9
	c19.1-6.1,39-12.7,58.7-9.4c20.1,3.4,37.6,17.2,47.6,34.9c17.5,30.9,19.2,88.7-25.1,96.8c-18.3,3.3-37-3.1-53.4-11.7
	c-16.4-8.7-31.6-19.7-48.8-26.7c-18.4-7.5-38.4-10.1-58.1-7.6c-9.2,1.2-20.3,5.9-20.2,15.2c0.1,7.3,7.3,12.2,13.9,15.5
	c23,11.4,48.2,19.2,68.4,35.1c20.2,15.9,34.3,43.7,24.5,67.4c-5,12.2-15.4,21.3-25.7,29.5c-39.8,31.6-88.5,58.1-139,52.4
	c-13.8-1.5-28.2-6.1-36.9-16.9c-5.9-7.4-8.5-16.8-9.9-26.1c-3.2-20.9-1.2-42.2,5.6-62.1c2.7-7.7,6.2-15.5,12.3-21
	c10.5-9.5,26.2-10.5,40.3-8.7c34,4.2,65.3,20.7,99.1,26.5C2572.6,8039.5,2576.1,8039.7,2578.2,8037.8z"/>
<rect x="314.7" y="5938" class="st10" width="1343.6" height="1343.6"/>
<path class="st11" d="M803.9,6660.2c-1.7-2.1-3.2-4-4.4-5.3c-15.6-17.4-37.2-29.7-60.4-33c-26-3.7-52.4,2.8-76.9,12.4
	s-47.7,22.1-72.3,31.1c-3.7,1.4-7.6,2.6-11.5,2s-7.7-3.7-7.7-7.7c0.1-2,0.8-3.9,2-5.5c9-14.2,27-19.1,43.4-22.6
	c38.1-8.1,76.7-14.3,113.8-26.3c11.8-3.8,23.6-8.4,33.4-16.1c9.8-7.7,17.3-19,17.9-31.4c1-19.3-15.5-36.3-34.1-41.5
	c-18.6-5.2-38.6-1.2-56.9,5s-36.1,14.4-55.1,17.8c-19,3.4-40.3,1.1-54.8-11.7c-18.4-16.2-23.4-46.5-45.9-56
	c-16.7-7.1-36.1,0.8-50.8,11.6c-31.6,23.3-52.1,60.9-54.5,100.1c-0.8,12.9,0.8,27.1,10,36.2c9.4,9.2,23.9,10.4,37,9.1
	c19.6-2,38.5-8.3,57.1-14.7l95.5-32.5c12.9-4.4,26.1-8.8,39.7-8.4c6.4,0.2,14.4,3.6,13.7,9.9c-0.4,3.2-3,5.7-5.8,7.5
	c-13.4,8.8-30.4,8.9-46.3,10.6c-19.2,2.1-38,6.9-56.7,11.7c-23.9,6.1-48,12.4-69.5,24.5c-11.9,6.7-23.3,15.8-28.9,28.2
	c-4.4,9.8-5,21.1-3.1,31.7c2.3,13,8.7,25.7,19.8,32.9c13.1,8.4,29.9,7.6,45.2,4.7c54.6-10.4,105.8-44.1,161.2-38.4
	c19.4,2,37.9,8.7,56.8,13.1c14.6,3.4,29.5,5.3,44.5,5.6c5.3,0.1,10.8,0,15.5-2.3C833.6,6703.9,815.2,6674.6,803.9,6660.2z"/>
<path class="st11" d="M1321.7,6590.8c4.6,15.3,4.1,33.2-10.6,42.2c-7.8,4.8-17.1,6.2-26.2,6.7c-21.4,1.2-42.7-2.3-63.7-5.9
	c-5.3-0.9-10.6-1.8-15.3-4.3c-9.9-5.3-15.3-17.2-14.1-28.3c1.2-11.1,8.5-21.1,18-27c8.1-5,17.5-7.2,26.7-9.9
	c9.8-2.8,19.5-6.2,29.6-7.9c10.1-1.7,20.8-1.5,30.1,2.7c9.4,4.2,16.9,12.2,21.4,21.5C1319.2,6583.9,1320.6,6587.3,1321.7,6590.8z"/>
<path class="st11" d="M1169.6,6694.4c4.4-11.5,9.3-22.9,14.2-34.1c2.5-5.7,5.2-11.6,10.1-15.4c6.6-5.1,15.7-5.2,24.1-4.8
	c14.6,0.8,29.1,2.6,43.4,5.4c4.1,0.8,8.7,2.1,10.4,5.9c2.2,4.9-2,10.4-6.5,13.4c-14.6,9.8-34.2,9.5-49.2,18.9
	c-4.5,2.8-8.8,9.1-5.1,13c2.3,2.4,6.3,2,9.5,1.1c13.1-3.8,24-12.7,35.5-20.1c35.9-23.1,80-31.5,122.5-28.3
	c11.5,0.9,23.3,2.7,32.8,9.1c18.1,12.1,16.1,36.9,8,54.6c-8.5,18.5-25.6,33.2-45.7,37.4c-15.2,3.1-30.9,0.7-46.3,0.8
	c-33.4,0.3-65.8,12.5-94.2,30.1c-11.8,7.3-23.4,15.7-36.9,18.9s-29.8-0.4-36.8-12.4c-3-5.2-3.9-11.3-4.3-17.3
	C1153.5,6744.4,1160.3,6719,1169.6,6694.4z"/>
<path class="st11" d="M1443.1,6585.3c22.1,11.7,45.8,21,65.7,36.2c17.1,13,31.9,31.9,34.7,53.7c2.8,21.7-4.5,46.5-19.7,62.4
	c-13.5,14-32.3,21.8-51.7,21.5c-15-0.3-31.4-7-36.9-20.9c-4.9-12.4,0.1-26.2,2.5-39.3c4.6-24.5-0.2-50.3-10.9-72.9
	c-10.6-22.6-26.8-42.2-45.1-59.1c-10-9.2-21.9-18.2-35.5-18c-1.3,0-2.7,0.2-3.6,1.2c-1.5,1.8,0.1,4.4,1.7,6
	c16.9,17.4,40.5,27.7,55.4,46.8c4.4,5.6,8.1,12.6,6.7,19.7c-2.3,11.6-16.3,16.3-28.1,16.6c-12.4,0.3-24.8-2-36.4-6.6
	c-2.6-1-5.2-2.3-6.9-4.5c-3.3-4.3-2-10.4-1.3-15.8c3.9-33.6-26.5-63.2-25.5-96.9c0.8-26.8,22.5-49.8,47.8-58.6
	c25.3-8.8,53.3-5.6,79.1,1.7c16.8,4.8,35,13.1,40.7,29.7c3.6,10.4,1.2,22.2-3.7,32.1c-8.7,17.4-26,30.7-45.3,32.4
	c-19.3,1.6-39.7-9.8-46.3-28.1c-0.7-2.1-1.3-4.3-0.7-6.4c0.7-2.4,2.7-4.1,4.4-5.8c2.7-2.7,5.1-5.9,5.7-9.7c0.6-3.8-0.9-8.1-4.4-9.7
	c-3.7-1.8-8.4,0-11,3.2c-2.6,3.2-3.6,7.4-4.2,11.4c-1,7-1.2,14.4,1.4,21c3,7.8,9.4,13.8,15.8,19.2c17.1,14.4,35.6,26.9,55.3,37.4
	C1442.9,6585.2,1443,6585.2,1443.1,6585.3z"/>
<path class="st11" d="M925.9,6556.7c-17.3-19.6-41.8-35.1-67.7-32.5c-20.3,2.1-37.9,14.8-52.2,29.3c-6.8,6.8-13.1,14.3-17.2,22.9
	c-4.1,8.7-5.8,18.8-3.1,28c3,10,10.7,17.8,16.8,26.2c12.4,17.1,18.7,37.7,27.2,57c8.5,19.3,20.3,38.6,39.2,48
	c14.2,7,30.9,7.6,46.4,4.4c9.1-1.9,18.2-5,25.4-10.9c9.6-7.8,15-19.7,17.9-31.7c9.6-40,5-81.2-15.8-117c-4.5-7.8-9.7-15.2-15.5-22
	C926.9,6557.9,926.4,6557.3,925.9,6556.7z M869.7,6670.4c-2.1-1.6-4-3.4-5.6-5.4c-5.6-6.4-11.4-13-14.3-20.9
	c-3.7-10-2.5-21.3,1.6-31.2c2.6-6.4,6.6-12.4,12.3-16.2c7.2-4.6,16.6-5.2,24.6-2.1c8,3.1,14.4,9.5,18.3,17.1
	c7.2,14,7.2,33.3-0.1,47.3c-3.6,6.9-9.8,12.7-17.4,14.3c-4.1,0.9-8.3,0.5-12.4-0.3c-2-0.3-3.9-1-5.7-1.9
	C870.6,6671,870.2,6670.7,869.7,6670.4z"/>
<path class="st11" d="M1136.6,6610.2c0.3-0.3,0.5-0.6,0.7-0.9c2.4-3.7-1.5-8.2-5.1-10.8c-48.5-34.5-111.8-41.9-161.6-74.5
	c-10.4-6.8-21.2-18.1-17.3-29.8c1.9-5.7,7-9.7,12.1-12.8c18.8-11.2,41.4-13.8,63-17.2c49.7-7.7,98.4-20.5,146.3-35.9
	c19.1-6.1,39-12.7,58.7-9.4c20.1,3.4,37.6,17.2,47.6,34.9c17.5,30.9,19.2,88.7-25.1,96.8c-18.3,3.3-37-3.1-53.4-11.7
	c-16.4-8.7-31.6-19.7-48.8-26.7c-18.4-7.5-38.4-10.1-58.1-7.6c-9.2,1.2-20.3,5.9-20.2,15.2c0.1,7.3,7.3,12.2,13.9,15.5
	c23,11.4,48.2,19.2,68.4,35.1c20.2,15.9,34.3,43.7,24.5,67.4c-5,12.2-15.4,21.3-25.7,29.5c-39.8,31.6-88.5,58.1-139,52.4
	c-13.8-1.5-28.2-6.1-36.9-16.9c-5.9-7.4-8.5-16.8-9.9-26.1c-3.2-20.9-1.2-42.2,5.6-62.1c2.7-7.7,6.2-15.5,12.3-21
	c10.5-9.5,26.2-10.5,40.3-8.7c34,4.2,65.3,20.7,99.1,26.5C1131,6611.9,1134.5,6612.1,1136.6,6610.2z"/>
<path class="st1" d="M2245.5,5602.1c-1.7-2.1-3.2-4-4.4-5.3c-15.6-17.4-37.2-29.7-60.4-33c-26-3.7-52.4,2.8-76.9,12.4
	s-47.7,22.1-72.3,31.1c-3.7,1.4-7.6,2.6-11.5,2c-3.9-0.6-7.7-3.7-7.7-7.7c0.1-2,0.8-3.9,2-5.5c9-14.2,27-19.1,43.4-22.6
	c38.1-8.1,76.7-14.3,113.8-26.3c11.8-3.8,23.6-8.4,33.4-16.1c9.8-7.7,17.3-19,17.9-31.4c1-19.3-15.5-36.3-34.1-41.5
	s-38.6-1.2-56.9,5c-18.3,6.2-36.1,14.4-55.1,17.8c-19,3.4-40.3,1.1-54.8-11.7c-18.4-16.2-23.4-46.5-45.9-56
	c-16.7-7.1-36.1,0.8-50.8,11.6c-31.6,23.3-52.1,60.9-54.5,100.1c-0.8,12.9,0.8,27.1,10,36.2c9.4,9.2,23.9,10.4,37,9.1
	c19.6-2,38.5-8.3,57.1-14.7l95.5-32.5c12.9-4.4,26.1-8.8,39.7-8.4c6.4,0.2,14.4,3.6,13.7,9.9c-0.4,3.2-3,5.7-5.8,7.5
	c-13.4,8.8-30.4,8.9-46.3,10.6c-19.2,2.1-38,6.9-56.7,11.7c-23.9,6.1-48,12.4-69.5,24.5c-11.9,6.7-23.3,15.8-28.9,28.2
	c-4.4,9.8-5,21.1-3.1,31.7c2.3,13,8.7,25.7,19.8,32.9c13.1,8.4,29.9,7.6,45.2,4.7c54.6-10.4,105.8-44.1,161.2-38.4
	c19.4,2,37.9,8.7,56.8,13.1c14.6,3.4,29.5,5.3,44.5,5.6c5.3,0.1,10.8,0,15.5-2.3C2275.2,5645.8,2256.8,5616.5,2245.5,5602.1z"/>
<path class="st1" d="M2763.3,5532.8c4.6,15.3,4.1,33.2-10.6,42.2c-7.8,4.8-17.1,6.2-26.2,6.7c-21.4,1.2-42.7-2.3-63.7-5.9
	c-5.3-0.9-10.6-1.8-15.3-4.3c-9.9-5.3-15.3-17.2-14.1-28.3c1.2-11.1,8.5-21.1,18-27c8.1-5,17.5-7.2,26.7-9.9
	c9.8-2.8,19.5-6.2,29.6-7.9c10.1-1.7,20.8-1.5,30.1,2.7c9.4,4.2,16.9,12.2,21.4,21.5C2760.8,5525.8,2762.2,5529.2,2763.3,5532.8z"/>
<path class="st1" d="M2611.2,5636.3c4.4-11.5,9.3-22.9,14.2-34.1c2.5-5.7,5.2-11.6,10.1-15.4c6.6-5.1,15.7-5.2,24.1-4.8
	c14.6,0.8,29.1,2.6,43.4,5.4c4.1,0.8,8.7,2.1,10.4,5.9c2.2,4.9-2,10.4-6.5,13.4c-14.6,9.8-34.2,9.5-49.2,18.9
	c-4.5,2.8-8.8,9.1-5.1,13c2.3,2.4,6.3,2,9.5,1.1c13.1-3.8,24-12.7,35.5-20.1c35.9-23.1,80-31.5,122.5-28.3
	c11.5,0.9,23.3,2.7,32.8,9.1c18.1,12.1,16.1,36.9,8,54.6c-8.5,18.5-25.6,33.2-45.7,37.4c-15.2,3.1-30.9,0.7-46.3,0.8
	c-33.4,0.3-65.8,12.5-94.2,30.1c-11.8,7.3-23.4,15.7-36.9,18.9c-13.5,3.2-29.8-0.4-36.8-12.4c-3-5.2-3.9-11.3-4.3-17.3
	C2595.1,5686.3,2601.9,5660.9,2611.2,5636.3z"/>
<path class="st1" d="M2884.6,5527.2c22.1,11.7,45.8,21,65.7,36.2c17.1,13,31.9,31.9,34.7,53.7c2.8,21.7-4.5,46.5-19.7,62.4
	c-13.5,14-32.3,21.8-51.7,21.5c-15-0.3-31.4-7-36.9-20.9c-4.9-12.4,0.1-26.2,2.5-39.3c4.6-24.5-0.2-50.3-10.9-72.9
	s-26.8-42.2-45.1-59.1c-10-9.2-21.9-18.2-35.5-18c-1.3,0-2.7,0.2-3.6,1.2c-1.5,1.8,0.1,4.4,1.7,6c16.9,17.4,40.5,27.7,55.4,46.8
	c4.4,5.6,8.1,12.6,6.7,19.7c-2.3,11.6-16.3,16.3-28.1,16.6c-12.4,0.3-24.8-2-36.4-6.6c-2.6-1-5.2-2.3-6.9-4.5
	c-3.3-4.3-2-10.4-1.3-15.8c3.9-33.6-26.5-63.2-25.5-96.9c0.8-26.8,22.5-49.8,47.8-58.6c25.3-8.8,53.3-5.6,79.1,1.7
	c16.8,4.8,35,13.1,40.7,29.7c3.6,10.4,1.2,22.2-3.7,32.1c-8.7,17.4-26,30.7-45.3,32.4c-19.3,1.6-39.7-9.8-46.3-28.1
	c-0.7-2.1-1.3-4.3-0.7-6.4c0.7-2.4,2.7-4.1,4.4-5.8c2.7-2.7,5.1-5.9,5.7-9.7c0.6-3.8-0.9-8.1-4.4-9.7c-3.7-1.8-8.4,0-11,3.2
	c-2.6,3.2-3.6,7.4-4.2,11.4c-1,7-1.2,14.4,1.4,21c3,7.8,9.4,13.8,15.8,19.2c17.1,14.4,35.6,26.9,55.3,37.4
	C2884.4,5527.1,2884.5,5527.1,2884.6,5527.2z"/>
<path class="st1" d="M2367.5,5498.6c-17.3-19.6-41.8-35.1-67.7-32.5c-20.3,2.1-37.9,14.8-52.2,29.3c-6.8,6.8-13.1,14.3-17.2,22.9
	c-4.1,8.7-5.8,18.8-3.1,28c3,10,10.7,17.8,16.8,26.2c12.4,17.1,18.7,37.7,27.2,57c8.5,19.3,20.3,38.6,39.2,48
	c14.2,7,30.9,7.6,46.4,4.4c9.1-1.9,18.2-5,25.4-10.9c9.6-7.8,15-19.7,17.9-31.7c9.6-40,5-81.2-15.8-117c-4.5-7.8-9.7-15.2-15.5-22
	C2368.5,5499.8,2368,5499.2,2367.5,5498.6z M2311.3,5612.3c-2.1-1.6-4-3.4-5.6-5.4c-5.6-6.4-11.4-13-14.3-20.9
	c-3.7-10-2.5-21.3,1.6-31.2c2.6-6.4,6.6-12.4,12.3-16.2c7.2-4.6,16.6-5.2,24.6-2.1c8,3.1,14.4,9.5,18.3,17.1
	c7.2,14,7.2,33.3-0.1,47.3c-3.6,6.9-9.8,12.7-17.4,14.3c-4.1,0.9-8.3,0.5-12.4-0.3c-2-0.3-3.9-1-5.7-1.9
	C2312.2,5612.9,2311.7,5612.6,2311.3,5612.3z"/>
<path class="st1" d="M2578.2,5552.1c0.3-0.3,0.5-0.6,0.7-0.9c2.4-3.7-1.5-8.2-5.1-10.8c-48.5-34.5-111.8-41.9-161.6-74.5
	c-10.4-6.8-21.2-18.1-17.3-29.8c1.9-5.7,7-9.7,12.1-12.8c18.8-11.2,41.4-13.8,63-17.2c49.7-7.7,98.4-20.5,146.3-35.9
	c19.1-6.1,39-12.7,58.7-9.4c20.1,3.4,37.6,17.2,47.6,34.9c17.5,30.9,19.2,88.7-25.1,96.8c-18.3,3.3-37-3.1-53.4-11.7
	c-16.4-8.7-31.6-19.7-48.8-26.7c-18.4-7.5-38.4-10.1-58.1-7.6c-9.2,1.2-20.3,5.9-20.2,15.2c0.1,7.3,7.3,12.2,13.9,15.5
	c23,11.4,48.2,19.2,68.4,35.1c20.2,15.9,34.3,43.7,24.5,67.4c-5,12.2-15.4,21.3-25.7,29.5c-39.8,31.6-88.5,58.1-139,52.4
	c-13.8-1.5-28.2-6.1-36.9-16.9c-5.9-7.4-8.5-16.8-9.9-26.1c-3.2-20.9-1.2-42.2,5.6-62.1c2.7-7.7,6.2-15.5,12.3-21
	c10.5-9.5,26.2-10.5,40.3-8.7c34,4.2,65.3,20.7,99.1,26.5C2572.6,5553.9,2576.1,5554,2578.2,5552.1z"/>
<rect x="1756.3" y="5938" class="st6" width="1343.6" height="1343.6"/>
<path class="st5" d="M2245.5,6660.2c-1.7-2.1-3.2-4-4.4-5.3c-15.6-17.4-37.2-29.7-60.4-33c-26-3.7-52.4,2.8-76.9,12.4
	s-47.7,22.1-72.3,31.1c-3.7,1.4-7.6,2.6-11.5,2c-3.9-0.6-7.7-3.7-7.7-7.7c0.1-2,0.8-3.9,2-5.5c9-14.2,27-19.1,43.4-22.6
	c38.1-8.1,76.7-14.3,113.8-26.3c11.8-3.8,23.6-8.4,33.4-16.1c9.8-7.7,17.3-19,17.9-31.4c1-19.3-15.5-36.3-34.1-41.5
	s-38.6-1.2-56.9,5c-18.3,6.2-36.1,14.4-55.1,17.8c-19,3.4-40.3,1.1-54.8-11.7c-18.4-16.2-23.4-46.5-45.9-56
	c-16.7-7.1-36.1,0.8-50.8,11.6c-31.6,23.3-52.1,60.9-54.5,100.1c-0.8,12.9,0.8,27.1,10,36.2c9.4,9.2,23.9,10.4,37,9.1
	c19.6-2,38.5-8.3,57.1-14.7l95.5-32.5c12.9-4.4,26.1-8.8,39.7-8.4c6.4,0.2,14.4,3.6,13.7,9.9c-0.4,3.2-3,5.7-5.8,7.5
	c-13.4,8.8-30.4,8.9-46.3,10.6c-19.2,2.1-38,6.9-56.7,11.7c-23.9,6.1-48,12.4-69.5,24.5c-11.9,6.7-23.3,15.8-28.9,28.2
	c-4.4,9.8-5,21.1-3.1,31.7c2.3,13,8.7,25.7,19.8,32.9c13.1,8.4,29.9,7.6,45.2,4.7c54.6-10.4,105.8-44.1,161.2-38.4
	c19.4,2,37.9,8.7,56.8,13.1c14.6,3.4,29.5,5.3,44.5,5.6c5.3,0.1,10.8,0,15.5-2.3C2275.2,6703.9,2256.8,6674.6,2245.5,6660.2z"/>
<path class="st5" d="M2763.3,6590.8c4.6,15.3,4.1,33.2-10.6,42.2c-7.8,4.8-17.1,6.2-26.2,6.7c-21.4,1.2-42.7-2.3-63.7-5.9
	c-5.3-0.9-10.6-1.8-15.3-4.3c-9.9-5.3-15.3-17.2-14.1-28.3c1.2-11.1,8.5-21.1,18-27c8.1-5,17.5-7.2,26.7-9.9
	c9.8-2.8,19.5-6.2,29.6-7.9c10.1-1.7,20.8-1.5,30.1,2.7c9.4,4.2,16.9,12.2,21.4,21.5C2760.8,6583.9,2762.2,6587.3,2763.3,6590.8z"/>
<path class="st5" d="M2611.2,6694.4c4.4-11.5,9.3-22.9,14.2-34.1c2.5-5.7,5.2-11.6,10.1-15.4c6.6-5.1,15.7-5.2,24.1-4.8
	c14.6,0.8,29.1,2.6,43.4,5.4c4.1,0.8,8.7,2.1,10.4,5.9c2.2,4.9-2,10.4-6.5,13.4c-14.6,9.8-34.2,9.5-49.2,18.9
	c-4.5,2.8-8.8,9.1-5.1,13c2.3,2.4,6.3,2,9.5,1.1c13.1-3.8,24-12.7,35.5-20.1c35.9-23.1,80-31.5,122.5-28.3
	c11.5,0.9,23.3,2.7,32.8,9.1c18.1,12.1,16.1,36.9,8,54.6c-8.5,18.5-25.6,33.2-45.7,37.4c-15.2,3.1-30.9,0.7-46.3,0.8
	c-33.4,0.3-65.8,12.5-94.2,30.1c-11.8,7.3-23.4,15.7-36.9,18.9c-13.5,3.2-29.8-0.4-36.8-12.4c-3-5.2-3.9-11.3-4.3-17.3
	C2595.1,6744.4,2601.9,6719,2611.2,6694.4z"/>
<path class="st5" d="M2884.6,6585.3c22.1,11.7,45.8,21,65.7,36.2c17.1,13,31.9,31.9,34.7,53.7c2.8,21.7-4.5,46.5-19.7,62.4
	c-13.5,14-32.3,21.8-51.7,21.5c-15-0.3-31.4-7-36.9-20.9c-4.9-12.4,0.1-26.2,2.5-39.3c4.6-24.5-0.2-50.3-10.9-72.9
	c-10.6-22.6-26.8-42.2-45.1-59.1c-10-9.2-21.9-18.2-35.5-18c-1.3,0-2.7,0.2-3.6,1.2c-1.5,1.8,0.1,4.4,1.7,6
	c16.9,17.4,40.5,27.7,55.4,46.8c4.4,5.6,8.1,12.6,6.7,19.7c-2.3,11.6-16.3,16.3-28.1,16.6c-12.4,0.3-24.8-2-36.4-6.6
	c-2.6-1-5.2-2.3-6.9-4.5c-3.3-4.3-2-10.4-1.3-15.8c3.9-33.6-26.5-63.2-25.5-96.9c0.8-26.8,22.5-49.8,47.8-58.6
	c25.3-8.8,53.3-5.6,79.1,1.7c16.8,4.8,35,13.1,40.7,29.7c3.6,10.4,1.2,22.2-3.7,32.1c-8.7,17.4-26,30.7-45.3,32.4
	c-19.3,1.6-39.7-9.8-46.3-28.1c-0.7-2.1-1.3-4.3-0.7-6.4c0.7-2.4,2.7-4.1,4.4-5.8c2.7-2.7,5.1-5.9,5.7-9.7c0.6-3.8-0.9-8.1-4.4-9.7
	c-3.7-1.8-8.4,0-11,3.2c-2.6,3.2-3.6,7.4-4.2,11.4c-1,7-1.2,14.4,1.4,21c3,7.8,9.4,13.8,15.8,19.2c17.1,14.4,35.6,26.9,55.3,37.4
	C2884.4,6585.2,2884.5,6585.2,2884.6,6585.3z"/>
<path class="st5" d="M2367.5,6556.7c-17.3-19.6-41.8-35.1-67.7-32.5c-20.3,2.1-37.9,14.8-52.2,29.3c-6.8,6.8-13.1,14.3-17.2,22.9
	c-4.1,8.7-5.8,18.8-3.1,28c3,10,10.7,17.8,16.8,26.2c12.4,17.1,18.7,37.7,27.2,57c8.5,19.3,20.3,38.6,39.2,48
	c14.2,7,30.9,7.6,46.4,4.4c9.1-1.9,18.2-5,25.4-10.9c9.6-7.8,15-19.7,17.9-31.7c9.6-40,5-81.2-15.8-117c-4.5-7.8-9.7-15.2-15.5-22
	C2368.5,6557.9,2368,6557.3,2367.5,6556.7z M2311.3,6670.4c-2.1-1.6-4-3.4-5.6-5.4c-5.6-6.4-11.4-13-14.3-20.9
	c-3.7-10-2.5-21.3,1.6-31.2c2.6-6.4,6.6-12.4,12.3-16.2c7.2-4.6,16.6-5.2,24.6-2.1c8,3.1,14.4,9.5,18.3,17.1
	c7.2,14,7.2,33.3-0.1,47.3c-3.6,6.9-9.8,12.7-17.4,14.3c-4.1,0.9-8.3,0.5-12.4-0.3c-2-0.3-3.9-1-5.7-1.9
	C2312.2,6671,2311.7,6670.7,2311.3,6670.4z"/>
<path class="st5" d="M2578.2,6610.2c0.3-0.3,0.5-0.6,0.7-0.9c2.4-3.7-1.5-8.2-5.1-10.8c-48.5-34.5-111.8-41.9-161.6-74.5
	c-10.4-6.8-21.2-18.1-17.3-29.8c1.9-5.7,7-9.7,12.1-12.8c18.8-11.2,41.4-13.8,63-17.2c49.7-7.7,98.4-20.5,146.3-35.9
	c19.1-6.1,39-12.7,58.7-9.4c20.1,3.4,37.6,17.2,47.6,34.9c17.5,30.9,19.2,88.7-25.1,96.8c-18.3,3.3-37-3.1-53.4-11.7
	c-16.4-8.7-31.6-19.7-48.8-26.7c-18.4-7.5-38.4-10.1-58.1-7.6c-9.2,1.2-20.3,5.9-20.2,15.2c0.1,7.3,7.3,12.2,13.9,15.5
	c23,11.4,48.2,19.2,68.4,35.1c20.2,15.9,34.3,43.7,24.5,67.4c-5,12.2-15.4,21.3-25.7,29.5c-39.8,31.6-88.5,58.1-139,52.4
	c-13.8-1.5-28.2-6.1-36.9-16.9c-5.9-7.4-8.5-16.8-9.9-26.1c-3.2-20.9-1.2-42.2,5.6-62.1c2.7-7.7,6.2-15.5,12.3-21
	c10.5-9.5,26.2-10.5,40.3-8.7c34,4.2,65.3,20.7,99.1,26.5C2572.6,6611.9,2576.1,6612.1,2578.2,6610.2z"/>
<image style="overflow:visible;enable-background:new    ;" width="873" height="437" xlink:href="C7285F76.png"  transform="matrix(0.7596 0 0 0.7596 2768.3555 2983.4114)">
</image>
</svg>
