<?xml version="1.0" encoding="UTF-8"?>
<svg xmlns="http://www.w3.org/2000/svg" xmlns:xlink="http://www.w3.org/1999/xlink" width="150px" height="58px" viewBox="0 0 150 58" version="1.1">
<g id="surface3">
<path style=" stroke:none;fill-rule:nonzero;fill:rgb(0%,0%,0%);fill-opacity:1;" d="M 50.824219 35.714844 C 50.601562 35.429688 50.398438 35.1875 50.238281 35.007812 C 48.167969 32.695312 45.320312 31.054688 42.242188 30.613281 C 38.800781 30.117188 35.300781 30.992188 32.0625 32.261719 C 28.828125 33.53125 25.75 35.203125 22.484375 36.402344 C 21.996094 36.582031 21.480469 36.753906 20.964844 36.671875 C 20.449219 36.59375 19.945312 36.179688 19.949219 35.652344 C 19.949219 35.390625 20.074219 35.144531 20.214844 34.921875 C 21.410156 33.035156 23.789062 32.371094 25.964844 31.90625 C 31.007812 30.828125 36.125 30.007812 41.027344 28.398438 C 42.589844 27.886719 44.15625 27.28125 45.445312 26.261719 C 46.738281 25.238281 47.738281 23.738281 47.820312 22.085938 C 47.949219 19.515625 45.777344 17.257812 43.3125 16.5625 C 40.847656 15.863281 38.207031 16.40625 35.78125 17.226562 C 33.359375 18.050781 31.007812 19.148438 28.488281 19.597656 C 25.96875 20.046875 23.152344 19.746094 21.230469 18.046875 C 18.796875 15.890625 18.136719 11.859375 15.152344 10.582031 C 12.9375 9.636719 10.367188 10.683594 8.429688 12.121094 C 4.25 15.222656 1.539062 20.238281 1.222656 25.449219 C 1.117188 27.164062 1.332031 29.058594 2.550781 30.265625 C 3.792969 31.492188 5.722656 31.65625 7.453125 31.480469 C 10.046875 31.222656 12.546875 30.371094 15.015625 29.527344 C 19.230469 28.085938 23.441406 26.644531 27.65625 25.203125 C 29.363281 24.621094 31.113281 24.03125 32.914062 24.089844 C 33.753906 24.113281 34.816406 24.566406 34.726562 25.410156 C 34.679688 25.839844 34.324219 26.167969 33.964844 26.40625 C 32.195312 27.582031 29.941406 27.59375 27.832031 27.820312 C 25.289062 28.097656 22.804688 28.738281 20.328125 29.375 C 17.167969 30.191406 13.96875 31.019531 11.128906 32.636719 C 9.550781 33.535156 8.050781 34.734375 7.300781 36.394531 C 6.710938 37.703125 6.640625 39.203125 6.890625 40.613281 C 7.203125 42.339844 8.050781 44.042969 9.511719 44.992188 C 11.242188 46.117188 13.476562 46.011719 15.5 45.621094 C 22.730469 44.230469 29.507812 39.753906 36.835938 40.5 C 39.398438 40.761719 41.847656 41.660156 44.355469 42.242188 C 46.289062 42.6875 48.265625 42.949219 50.25 42.992188 C 50.949219 43.007812 51.671875 42.988281 52.304688 42.691406 C 54.75 41.539062 52.320312 37.628906 50.824219 35.714844 Z M 50.824219 35.714844 "/>
<path style=" stroke:none;fill-rule:nonzero;fill:rgb(0%,0%,0%);fill-opacity:1;" d="M 119.367188 26.480469 C 119.984375 28.515625 119.90625 30.898438 117.960938 32.09375 C 116.933594 32.726562 115.699219 32.921875 114.496094 32.988281 C 111.667969 33.148438 108.847656 32.679688 106.058594 32.199219 C 105.359375 32.082031 104.648438 31.957031 104.027344 31.621094 C 102.714844 30.921875 102 29.328125 102.164062 27.847656 C 102.332031 26.367188 103.292969 25.039062 104.554688 24.253906 C 105.625 23.589844 106.875 23.292969 108.082031 22.941406 C 109.382812 22.566406 110.667969 22.113281 112.003906 21.894531 C 113.339844 21.671875 114.753906 21.699219 115.988281 22.25 C 117.238281 22.808594 118.21875 23.875 118.828125 25.109375 C 119.035156 25.535156 119.21875 25.996094 119.367188 26.480469 Z M 119.367188 26.480469 "/>
<path style=" stroke:none;fill-rule:nonzero;fill:rgb(0%,0%,0%);fill-opacity:1;" d="M 99.238281 40.265625 C 99.816406 38.730469 100.46875 37.21875 101.121094 35.730469 C 101.449219 34.976562 101.804688 34.1875 102.457031 33.679688 C 103.332031 33 104.539062 32.988281 105.644531 33.046875 C 107.574219 33.15625 109.496094 33.394531 111.390625 33.769531 C 111.929688 33.875 112.546875 34.050781 112.773438 34.554688 C 113.070312 35.210938 112.511719 35.9375 111.914062 36.335938 C 109.976562 37.644531 107.386719 37.605469 105.40625 38.847656 C 104.808594 39.226562 104.246094 40.054688 104.730469 40.574219 C 105.035156 40.898438 105.558594 40.84375 105.984375 40.722656 C 107.722656 40.222656 109.164062 39.03125 110.683594 38.046875 C 115.433594 34.976562 121.273438 33.851562 126.902344 34.28125 C 128.417969 34.398438 129.984375 34.644531 131.246094 35.496094 C 133.640625 37.105469 133.375 40.414062 132.304688 42.757812 C 131.179688 45.21875 128.914062 47.1875 126.257812 47.738281 C 124.25 48.152344 122.171875 47.832031 120.121094 47.851562 C 115.703125 47.886719 111.410156 49.515625 107.652344 51.851562 C 106.089844 52.824219 104.558594 53.9375 102.773438 54.363281 C 100.984375 54.789062 98.824219 54.308594 97.90625 52.710938 C 97.507812 52.015625 97.390625 51.199219 97.335938 50.402344 C 97.109375 46.929688 98 43.546875 99.238281 40.265625 Z M 99.238281 40.265625 "/>
<path style=" stroke:none;fill-rule:nonzero;fill:rgb(0%,0%,0%);fill-opacity:1;" d="M 135.433594 25.738281 C 138.363281 27.304688 141.496094 28.539062 144.132812 30.558594 C 146.394531 32.292969 148.347656 34.804688 148.722656 37.714844 C 149.097656 40.613281 148.132812 43.902344 146.117188 46.023438 C 144.355469 47.871094 141.8125 48.9375 139.269531 48.890625 C 137.28125 48.855469 135.109375 47.964844 134.378906 46.105469 C 133.730469 44.457031 134.390625 42.621094 134.710938 40.878906 C 135.3125 37.609375 134.679688 34.183594 133.273438 31.175781 C 131.871094 28.167969 129.726562 25.558594 127.300781 23.300781 C 125.976562 22.070312 124.402344 20.878906 122.601562 20.902344 C 122.429688 20.902344 122.238281 20.925781 122.128906 21.058594 C 121.933594 21.296875 122.144531 21.644531 122.359375 21.863281 C 124.597656 24.179688 127.71875 25.550781 129.695312 28.097656 C 130.277344 28.847656 130.765625 29.78125 130.582031 30.714844 C 130.285156 32.253906 128.425781 32.890625 126.871094 32.925781 C 125.226562 32.964844 123.578125 32.664062 122.058594 32.046875 C 121.714844 31.910156 121.363281 31.746094 121.136719 31.453125 C 120.695312 30.878906 120.875 30.066406 120.960938 29.34375 C 121.480469 24.875 117.445312 20.9375 117.582031 16.4375 C 117.691406 12.871094 120.558594 9.8125 123.90625 8.640625 C 127.257812 7.472656 130.96875 7.890625 134.378906 8.867188 C 136.601562 9.503906 139.011719 10.617188 139.761719 12.816406 C 140.238281 14.207031 139.921875 15.769531 139.269531 17.085938 C 138.121094 19.398438 135.828125 21.179688 133.269531 21.394531 C 130.710938 21.613281 128.011719 20.085938 127.144531 17.652344 C 127.042969 17.378906 126.96875 17.078125 127.046875 16.796875 C 127.136719 16.484375 127.398438 16.257812 127.628906 16.023438 C 127.984375 15.667969 128.296875 15.234375 128.378906 14.730469 C 128.460938 14.230469 128.253906 13.660156 127.800781 13.4375 C 127.3125 13.199219 126.695312 13.441406 126.347656 13.863281 C 126.003906 14.289062 125.875 14.847656 125.792969 15.386719 C 125.65625 16.320312 125.636719 17.296875 125.972656 18.179688 C 126.371094 19.222656 127.222656 20.015625 128.070312 20.734375 C 130.328125 22.648438 132.789062 24.324219 135.394531 25.71875 C 135.40625 25.726562 135.421875 25.734375 135.433594 25.738281 Z M 135.433594 25.738281 "/>
<path style=" stroke:none;fill-rule:nonzero;fill:rgb(0%,0%,0%);fill-opacity:1;" d="M 66.96875 21.9375 C 64.6875 19.328125 61.4375 17.265625 58.011719 17.613281 C 55.332031 17.886719 52.992188 19.585938 51.097656 21.515625 C 50.203125 22.425781 49.363281 23.414062 48.820312 24.570312 C 48.273438 25.726562 48.050781 27.074219 48.414062 28.300781 C 48.808594 29.632812 49.828125 30.664062 50.644531 31.789062 C 52.285156 34.0625 53.117188 36.808594 54.238281 39.382812 C 55.359375 41.957031 56.929688 44.527344 59.433594 45.773438 C 61.3125 46.710938 63.523438 46.78125 65.578125 46.363281 C 66.789062 46.117188 67.992188 45.691406 68.949219 44.90625 C 70.214844 43.867188 70.9375 42.285156 71.316406 40.683594 C 72.585938 35.351562 71.976562 29.878906 69.230469 25.109375 C 68.632812 24.074219 67.945312 23.089844 67.175781 22.175781 C 67.105469 22.09375 67.039062 22.015625 66.96875 21.9375 Z M 59.539062 37.078125 C 59.253906 36.882812 59.019531 36.617188 58.792969 36.359375 C 58.050781 35.507812 57.289062 34.632812 56.902344 33.570312 C 56.417969 32.238281 56.578125 30.730469 57.113281 29.417969 C 57.460938 28.570312 57.980469 27.765625 58.746094 27.265625 C 59.695312 26.644531 60.945312 26.578125 62 26.992188 C 63.054688 27.402344 63.910156 28.257812 64.429688 29.269531 C 65.386719 31.132812 65.378906 33.703125 64.410156 35.566406 C 63.933594 36.480469 63.109375 37.257812 62.101562 37.46875 C 61.5625 37.582031 61.003906 37.535156 60.464844 37.425781 C 60.203125 37.371094 59.941406 37.300781 59.707031 37.179688 C 59.648438 37.148438 59.59375 37.113281 59.539062 37.078125 Z M 59.539062 37.078125 "/>
<path style=" stroke:none;fill-rule:nonzero;fill:rgb(0%,0%,0%);fill-opacity:1;" d="M 94.863281 29.058594 C 94.902344 29.023438 94.933594 28.984375 94.960938 28.9375 C 95.277344 28.445312 94.761719 27.84375 94.289062 27.503906 C 87.875 22.910156 79.484375 21.925781 72.890625 17.589844 C 71.519531 16.6875 70.078125 15.183594 70.605469 13.617188 C 70.859375 12.863281 71.527344 12.324219 72.210938 11.917969 C 74.699219 10.421875 77.683594 10.074219 80.550781 9.632812 C 87.128906 8.609375 93.582031 6.894531 99.917969 4.855469 C 102.445312 4.039062 105.078125 3.164062 107.691406 3.609375 C 110.347656 4.058594 112.671875 5.898438 114 8.257812 C 116.316406 12.367188 116.535156 20.066406 110.683594 21.148438 C 108.265625 21.59375 105.789062 20.738281 103.617188 19.585938 C 101.441406 18.429688 99.425781 16.964844 97.148438 16.03125 C 94.726562 15.039062 92.050781 14.6875 89.453125 15.019531 C 88.238281 15.171875 86.761719 15.808594 86.777344 17.039062 C 86.785156 18.011719 87.746094 18.667969 88.613281 19.097656 C 91.664062 20.617188 95 21.648438 97.667969 23.769531 C 100.335938 25.894531 102.207031 29.589844 100.914062 32.753906 C 100.25 34.378906 98.875 35.585938 97.507812 36.679688 C 92.234375 40.886719 85.789062 44.410156 79.101562 43.652344 C 77.273438 43.449219 75.367188 42.847656 74.21875 41.402344 C 73.4375 40.421875 73.097656 39.160156 72.910156 37.921875 C 72.492188 35.15625 72.75 32.289062 73.65625 29.648438 C 74.007812 28.617188 74.480469 27.589844 75.28125 26.855469 C 76.675781 25.589844 78.753906 25.464844 80.621094 25.695312 C 85.117188 26.257812 89.265625 28.449219 93.730469 29.222656 C 94.121094 29.289062 94.589844 29.3125 94.863281 29.058594 Z M 94.863281 29.058594 "/>
</g>
</svg>
